<svg xmlns="http://www.w3.org/2000/svg" width="62" height="62" viewBox="0 0 62 62">
    <defs>
        <linearGradient id="tawujrd3ba" x1="1" y1="1" x2="0" gradientUnits="objectBoundingBox">
            <stop offset="0" stop-color="#3159ff"/>
            <stop offset="1" stop-color="#22d4ff"/>
        </linearGradient>
    </defs>
    <g transform="translate(14.238 15.002)">
        <rect width="62" height="62" rx="18" transform="translate(-14.238 -15.002)" style="fill:url(#tawujrd3ba)"/>
        <path data-name="빼기 803" d="M22449.3 6649.6h-29.082a3.472 3.472 0 0 1-3.459-3.477v-25.042a3.475 3.475 0 0 1 3.459-3.482h4.773a3.784 3.784 0 0 1 2.287.98l2.66 2.688a2.113 2.113 0 0 0 1.33.631c.479.045.945.068 1.426.068h16.605a3.472 3.472 0 0 1 3.459 3.477v20.68a3.472 3.472 0 0 1-3.458 3.477zm-16.375-10.391h3.668v3.533h1.832a1.8 1.8 0 0 0 1.836-1.764v-10.611a1.8 1.8 0 0 0-1.836-1.769h-7.332a1.8 1.8 0 0 0-1.83 1.769v10.611a1.8 1.8 0 0 0 1.83 1.764h1.832v-3.532zm3.668-1.77h-3.668v-1.769h3.668v1.768zm0-3.533h-3.668v-1.77h3.668v1.769z" transform="translate(-22418 -6617.603)" style="fill:#fff"/>
    </g>
</svg>
