<svg xmlns="http://www.w3.org/2000/svg" width="62" height="62" viewBox="0 0 62 62">
    <defs>
        <linearGradient id="r7vjz1qzea" x1="1" y1="1" x2="0" gradientUnits="objectBoundingBox">
            <stop offset="0" stop-color="#f09d28"/>
            <stop offset="1" stop-color="#ebd04a"/>
        </linearGradient>
    </defs>
    <g transform="translate(0 3)">
        <rect width="62" height="62" rx="18" transform="translate(0 -3)" style="fill:url(#r7vjz1qzea)"/>
        <g data-name="icon 30">
            <path data-name="빼기 806" d="M22137.3 6649.6h-29.078a3.473 3.473 0 0 1-3.461-3.478v-25.038a3.477 3.477 0 0 1 3.461-3.484h4.778a3.772 3.772 0 0 1 2.285.984l2.66 2.689a2.131 2.131 0 0 0 1.334.627c.477.045.941.067 1.422.067h16.6a3.476 3.476 0 0 1 3.463 3.479v20.676a3.475 3.475 0 0 1-3.464 3.478zm-14.535-8.891 3.172 1.767a1.016 1.016 0 0 0 1.49-1.056l-.623-3.817 2.672-2.75a1.015 1.015 0 0 0-.572-1.711l-3.645-.561-1.584-3.4a.994.994 0 0 0-.91-.583 1.018 1.018 0 0 0-.918.583l-1.582 3.4-3.646.561a1 1 0 0 0-.8.678 1.02 1.02 0 0 0 .238 1.034l2.668 2.75-.617 3.817a1.009 1.009 0 0 0 .41.995 1.034 1.034 0 0 0 .584.189 1 1 0 0 0 .488-.128l3.18-1.767z" transform="translate(-22091.764 -6605.602)" style="fill:#fff"/>
        </g>
    </g>
</svg>
