<svg xmlns="http://www.w3.org/2000/svg" width="62" height="62" viewBox="0 0 62 62">
    <defs>
        <linearGradient id="hqszoqvvsa" x1="1" y1="1" x2="0" gradientUnits="objectBoundingBox">
            <stop offset="0" stop-color="#2553e8"/>
            <stop offset="1" stop-color="#6582ff"/>
        </linearGradient>
        <filter id="m6c9e2g9wb" x="32.004" y="32" width="28" height="28" filterUnits="userSpaceOnUse">
            <feOffset dy="2"/>
            <feGaussianBlur stdDeviation="2" result="blur"/>
            <feFlood flood-color="#1c1c1c" flood-opacity=".153"/>
            <feComposite operator="in" in2="blur"/>
            <feComposite in="SourceGraphic"/>
        </filter>
    </defs>
    <g transform="translate(0 3)">
        <rect width="62" height="62" rx="18" transform="translate(0 -3)" style="fill:url(#hqszoqvvsa)"/>
        <path data-name="빼기 805" d="M22293.3 6649.6h-29.074a3.477 3.477 0 0 1-3.465-3.48v-25.041a3.477 3.477 0 0 1 3.465-3.48h4.768a3.784 3.784 0 0 1 2.287.979l2.664 2.686a2.139 2.139 0 0 0 1.332.632 13.432 13.432 0 0 0 1.422.067h16.6a3.474 3.474 0 0 1 3.465 3.475v20.682a3.477 3.477 0 0 1-3.464 3.48zm-18.086-12.115 4.7 2.714a1.845 1.845 0 0 0-.027.353 2.441 2.441 0 1 0 .783-1.785l-4.258-2.462a2.467 2.467 0 0 0 .229-1.03c0-.08 0-.158-.01-.24v-.006l4.113-2.373a2.434 2.434 0 1 0-.855-1.852 2.823 2.823 0 0 0 .039.442l-3.99 2.306a2.437 2.437 0 1 0-.723 3.934z" transform="translate(-22247.758 -6605.603)" style="fill:#fff"/>
        <g style="filter:url(#m6c9e2g9wb)">
            <circle data-name="타원 8137" cx="8" cy="8" r="8" transform="translate(38.004 33)" style="fill:#183ebc"/>
        </g>
        <path data-name="합치기 856" d="M3.113 7.151.336 4.3A.691.691 0 0 1 .2 4.192a.756.756 0 0 1 0-1.027.692.692 0 0 1 .135-.108L3.113.206a.674.674 0 0 1 .971 0 .719.719 0 0 1 0 1l-1.7 1.747H7.3a.7.7 0 0 1 0 1.409H2.334l1.749 1.8a.717.717 0 0 1 0 1 .673.673 0 0 1-.97 0z" transform="translate(42.004 37.5)" style="fill:#fff"/>
    </g>
</svg>
