<svg xmlns="http://www.w3.org/2000/svg" width="62" height="62" viewBox="0 0 62 62">
    <defs>
        <linearGradient id="x9v0z4s8qa" x1="1" y1="1" x2="0" gradientUnits="objectBoundingBox">
            <stop offset="0" stop-color="#0484e3"/>
            <stop offset="1" stop-color="#10f5ff"/>
        </linearGradient>
    </defs>
    <g transform="translate(-1 2)">
        <rect width="62" height="62" rx="18" transform="translate(1 -2)" style="fill:url(#x9v0z4s8qa)"/>
        <g data-name="icon 30">
            <path data-name="빼기 802" d="M20109.3 7635.6h-29.08a3.471 3.471 0 0 1-3.457-3.478v-25.042a3.471 3.471 0 0 1 3.457-3.478h4.78a3.788 3.788 0 0 1 2.287.979l2.66 2.69a2.16 2.16 0 0 0 1.332.631c.4.04.889.061 1.424.061h16.6a3.475 3.475 0 0 1 3.463 3.478v20.685a3.475 3.475 0 0 1-3.466 3.474zm-14.945-21.713a3.927 3.927 0 0 0-3.928 3.6v7.2a5.345 5.345 0 0 0 4.715 4.74 5.188 5.188 0 0 0 .615.036 5.356 5.356 0 0 0 5.316-4.871v-7.132a.889.889 0 0 0-1.777 0l.006 7.042a3.65 3.65 0 0 1-1.383 2.483 3.555 3.555 0 0 1-2.57.722 3.592 3.592 0 0 1-3.15-3.114v-7.011a2.2 2.2 0 0 1 .838-1.514 2.146 2.146 0 0 1 1.326-.456c.072 0 .146 0 .223.011a2.173 2.173 0 0 1 1.914 1.868l.016 6.153a.806.806 0 0 1-.3.545.718.718 0 0 1-.443.157.694.694 0 0 1-.09-.006.763.763 0 0 1-.662-.6v-5.416a.889.889 0 0 0-1.777 0l.006 5.507a2.507 2.507 0 0 0 2.227 2.226 2.727 2.727 0 0 0 .3.017 2.488 2.488 0 0 0 1.541-.527 2.528 2.528 0 0 0 .969-1.812l-.01-6.34a3.927 3.927 0 0 0-3.479-3.488 4.187 4.187 0 0 0-.443-.016z" transform="translate(-20062.764 -7590.603)" style="fill:#fff"/>
        </g>
    </g>
</svg>
