<svg xmlns="http://www.w3.org/2000/svg" width="62" height="62" viewBox="0 0 62 62">
    <defs>
        <linearGradient id="9ed7o2k83a" x1="1" y1="1" x2="0" gradientUnits="objectBoundingBox">
            <stop offset="0" stop-color="#03a6cc"/>
            <stop offset="1" stop-color="#61f8d0"/>
        </linearGradient>
    </defs>
    <g transform="translate(0 3)">
        <rect width="62" height="62" rx="18" transform="translate(0 -3)" style="fill:url(#9ed7o2k83a)"/>
        <path data-name="빼기 807" d="M21134.541 8073h-29.076a3.49 3.49 0 0 1-3.463-3.48v-25.044a3.481 3.481 0 0 1 3.463-3.475h4.77a3.7 3.7 0 0 1 2.287.982l2.658 2.684a2.154 2.154 0 0 0 1.33.631c.412.042.893.063 1.428.063h16.6a3.471 3.471 0 0 1 3.463 3.475v20.684a3.472 3.472 0 0 1-3.459 3.48zm-18.291-13.251h7.48a.512.512 0 0 1 .369.163.553.553 0 0 1 .15.4v.8a2.5 2.5 0 1 0 1.5 0v-.774a2.05 2.05 0 0 0-2-2.09h-3v-1.363a2.5 2.5 0 1 0-1.5 0v1.363h-3.025a2.037 2.037 0 0 0-1.979 2.069v.8a2.5 2.5 0 1 0 1.5 0v-.817a.512.512 0 0 1 .148-.382.486.486 0 0 1 .357-.168z" transform="translate(-21089 -8029)" style="fill:#fff;stroke:transparent;stroke-miterlimit:10"/>
    </g>
</svg>
