<svg xmlns="http://www.w3.org/2000/svg" width="62" height="62" viewBox="0 0 62 62">
    <defs>
        <linearGradient id="zo7e71gcka" x1="1" y1="1" x2="0" gradientUnits="objectBoundingBox">
            <stop offset="0" stop-color="#05a7bc"/>
            <stop offset="1" stop-color="#5ffff9"/>
        </linearGradient>
    </defs>
    <g transform="translate(0 3)">
        <rect width="62" height="62" rx="18" transform="translate(0 -3)" style="fill:url(#zo7e71gcka)"/>
        <g data-name="icon 30">
            <path data-name="빼기 801" d="M20187.3 7635.6h-29.082a3.475 3.475 0 0 1-3.461-3.481v-25.039a3.473 3.473 0 0 1 3.461-3.476h4.773a3.768 3.768 0 0 1 2.285.978l2.66 2.686a2.152 2.152 0 0 0 1.334.633c.439.044.92.066 1.428.066h16.6a3.473 3.473 0 0 1 3.461 3.476v20.679a3.475 3.475 0 0 1-3.459 3.478zm-13.439-19 3.178 6.791v3.709h2.527v-3.709l3.193-6.791h-2.656l-.875 2.331-.271.71-.094.247c-.176.464-.342.9-.518 1.384h-.055l-.049-.133-.238-.65c-.189-.519-.375-1.029-.564-1.558l-.883-2.331zm-3.121 3.264h.057a33.361 33.361 0 0 0-.33 3.638v3.6h2.316v-10.5h-2.758l-1.615 4.53c-.1.3-.189.609-.281.925-.1.34-.2.672-.3 1h-.07c-.068-.221-.131-.447-.193-.665l-.008-.031c-.119-.41-.24-.833-.377-1.225l-1.678-4.53h-2.74v10.5h2.27v-3.6a33.627 33.627 0 0 0-.312-3.535v-.015l-.01-.088h.057l.85 2.508 1.436 3.841h1.393l1.42-3.841.881-2.508z" transform="translate(-20141.76 -7591.603)" style="fill:#fff"/>
        </g>
    </g>
</svg>
