<svg xmlns="http://www.w3.org/2000/svg" width="171.398" height="38.137" viewBox="0 0 171.398 38.137">
    <defs>
        <filter id="합치기_1002" x="0" y="0" width="171.398" height="38.137" filterUnits="userSpaceOnUse">
            <feOffset dy="3"/>
            <feGaussianBlur stdDeviation="3" result="blur"/>
            <feFlood flood-opacity=".161"/>
            <feComposite operator="in" in2="blur"/>
            <feComposite in="SourceGraphic"/>
        </filter>
        <style>
            .cls-3{fill:#fff}
        </style>
    </defs>
    <g id="logo_onechamber_s" transform="translate(-67.182 -153.332)">
        <path id="사각형_4617" data-name="사각형 4617" transform="translate(76 158)" style="fill:rgba(255,80,80,.58);opacity:.001" d="M0 0h154v22H0z"/>
        <g transform="translate(67.183 153.333)" style="filter:url(#합치기_1002)" id="logo">
            <path id="합치기_1002-2" data-name="합치기 1002" d="M7021.908 16627.3h-.021a9.568 9.568 0 1 1 0-19.137h.042a9.568 9.568 0 1 1 0 19.137zm-4.786-9.564a4.774 4.774 0 1 0 4.786-4.785 4.8 4.8 0 0 0-4.786 4.787zm46.937.072a7.456 7.456 0 0 1 11.2-6.41 1.115 1.115 0 0 1 .409 1.531 1.131 1.131 0 0 1-1.54.4 5.177 5.177 0 1 0 0 8.951 1.133 1.133 0 0 1 1.54.4 1.115 1.115 0 0 1-.409 1.531 7.462 7.462 0 0 1-11.2-6.408zm76.381 7.289a1.124 1.124 0 0 1 0-2.248h8.313a1.124 1.124 0 1 1 0 2.248zm22.212-.5-3.722-5.455h-3.1v4.824a1.127 1.127 0 0 1-2.253 0v-12.447a1.12 1.12 0 0 1 1.122-1.123h5.613a4.373 4.373 0 0 1 1.223 8.58l2.983 4.369a1.115 1.115 0 0 1-.3 1.551 1.093 1.093 0 0 1-.63.2 1.135 1.135 0 0 1-.936-.496zm-6.827-7.691h4.486a2.137 2.137 0 1 0 0-4.273h-4.486zm-29.231 8.184a1.123 1.123 0 0 1-1.126-1.123v-12.451a1.123 1.123 0 0 1 1.126-1.123h4.812a4.1 4.1 0 0 1 3.071 6.855 4.356 4.356 0 0 1-2.642 7.842zm1.127-2.24h4.114a2.12 2.12 0 1 0 0-4.24h-4.114zm0-6.48h3.685a1.868 1.868 0 1 0 0-3.736h-3.685zm-8.346 7.6v-8.621l-3.5 5.455s-.008.008-.008.012a1.384 1.384 0 0 1-.171.2.113.113 0 0 1-.033.027.479.479 0 0 1-.063.051.213.213 0 0 1-.046.033c-.008 0-.012.014-.025.018s-.017.008-.025.016c-.029.018-.059.029-.088.047a.371.371 0 0 0-.054.025c-.029.012-.058.02-.083.029s-.042.012-.062.02a.492.492 0 0 1-.083.018l-.062.012c-.042 0-.083.008-.133.008h-.029c-.046 0-.088 0-.129-.008l-.059-.012a.462.462 0 0 1-.087-.018l-.059-.02a.791.791 0 0 1-.083-.029l-.054-.025a.611.611 0 0 1-.087-.051c-.013 0-.021 0-.029-.012s-.013-.014-.021-.018a.153.153 0 0 1-.046-.033.31.31 0 0 1-.062-.051.228.228 0 0 1-.038-.027 1.382 1.382 0 0 1-.167-.2s-.008-.008-.008-.012l-3.5-5.455v8.621a1.127 1.127 0 0 1-2.253 0v-12.47a.414.414 0 0 1 0-.066.143.143 0 0 1 0-.045v-.051c0-.012.008-.041.012-.062a.083.083 0 0 1 .008-.033.332.332 0 0 1 .021-.07.058.058 0 0 1 .008-.029.367.367 0 0 1 .029-.072c0-.012.013-.029.017-.041a.332.332 0 0 1 .029-.055.445.445 0 0 1 .033-.059.163.163 0 0 0 .021-.033.637.637 0 0 0 .046-.062c.008 0 .013-.016.021-.025a.526.526 0 0 0 .046-.049.128.128 0 0 1 .029-.029.5.5 0 0 0 .042-.043c.013-.012.029-.02.042-.033a.162.162 0 0 0 .037-.029c.017-.012.034-.025.055-.037a.016.016 0 0 0 .008 0 .228.228 0 0 1 .029-.018c.021-.012.038-.023.059-.033a.231.231 0 0 1 .046-.02c.017-.01.038-.018.054-.025l.05-.021a.417.417 0 0 0 .054-.016c.017-.006.038-.01.059-.018a.192.192 0 0 0 .046-.008.465.465 0 0 1 .066-.01c.017 0 .029 0 .042-.008h.075a.064.064 0 0 1 .029 0H7109.466a.176.176 0 0 1 .054.01l.054.012a.188.188 0 0 1 .046.008c.021 0 .042.014.063.018l.038.012a.55.55 0 0 0 .063.025.43.43 0 0 1 .046.025.186.186 0 0 1 .05.021.381.381 0 0 1 .063.041l.029.012c.025.018.046.033.067.051a.174.174 0 0 0 .021.018l.054.049.025.025a.213.213 0 0 1 .042.045.162.162 0 0 1 .034.039.239.239 0 0 1 .029.037.213.213 0 0 1 .038.055s0 .008.008.008l4.628 7.211 4.632-7.211a.045.045 0 0 0 .013-.018c0-.008.012-.016.017-.023a.679.679 0 0 1 .05-.068l.008-.008a1.051 1.051 0 0 1 .325-.262v-.006a.63.63 0 0 1 .092-.041l.033-.012a.164.164 0 0 1 .067-.025.317.317 0 0 0 .042-.014.371.371 0 0 1 .063-.016h.046a.143.143 0 0 1 .063-.014h.125a.076.076 0 0 1 .029 0h.071c.017 0 .029 0 .046.008a.34.34 0 0 1 .063.01l.055.012a.472.472 0 0 1 .05.014c.021.008.042.012.063.02l.042.014c.021.012.046.02.066.033l.034.012.075.043.012.012h.008a.245.245 0 0 1 .071.051l.021.012c.021.021.042.037.063.059a.057.057 0 0 1 .021.018.539.539 0 0 1 .059.063l.017.016a.926.926 0 0 1 .059.08l.008.008a1.121 1.121 0 0 1 .188.5.615.615 0 0 1 0 .092.049.049 0 0 1 0 .021v12.477a1.127 1.127 0 0 1-2.253 0zm-16.124.426-1.277-3.076h-5.691l-1.273 3.076a1.131 1.131 0 0 1-1.043.7 1.091 1.091 0 0 1-.425-.088 1.115 1.115 0 0 1-.614-1.461l5.162-12.455c.013-.033.029-.066.046-.1.013-.016.021-.033.033-.049s.017-.029.025-.047.025-.033.038-.045a.275.275 0 0 1 .029-.043c.008-.012.025-.023.038-.041a.339.339 0 0 1 .038-.037.1.1 0 0 1 .034-.033.414.414 0 0 1 .046-.043c.012-.012.025-.016.037-.029s.034-.023.05-.037.029-.016.046-.025l.05-.029a1.067 1.067 0 0 1 .1-.045.368.368 0 0 1 .038-.018c.021-.008.042-.012.063-.02a.2.2 0 0 1 .054-.018.231.231 0 0 1 .055-.008.408.408 0 0 1 .058-.014.224.224 0 0 0 .05-.008.311.311 0 0 0 .058 0h.05a.3.3 0 0 1 .059 0h.054a.223.223 0 0 0 .054.008.35.35 0 0 0 .054.014.431.431 0 0 1 .063.012l.042.014a.38.38 0 0 1 .083.029.032.032 0 0 1 .021.008c.033.012.067.029.1.045a.194.194 0 0 0 .025.018c.025.012.046.025.067.037a.378.378 0 0 0 .042.029c.017.014.034.025.05.037s.025.021.038.033.029.025.042.043a.268.268 0 0 1 .034.033.414.414 0 0 0 .042.045l.025.039a.622.622 0 0 1 .042.053c.008.014.012.025.021.039a.392.392 0 0 1 .033.053c.017.035.033.068.046.1l5.162 12.455a1.125 1.125 0 0 1-2.082.852zm-6.039-5.316h3.835l-1.919-4.623zm-9.426 4.891v-5.357h-6.322v5.357a1.127 1.127 0 0 1-2.253 0v-12.451a1.127 1.127 0 0 1 2.253 0v4.854h6.322v-4.854a1.127 1.127 0 0 1 2.253 0v12.451a1.127 1.127 0 0 1-2.253 0zm-36.413 1.123a1.127 1.127 0 0 1 0-2.254h8.313a1.127 1.127 0 0 1 0 2.254zm-5.942 0a1.1 1.1 0 0 1-.117-.008c-.008 0-.021-.006-.029-.006a.9.9 0 0 0-.092-.016.129.129 0 0 1-.038-.008c-.025-.01-.054-.018-.079-.025a.149.149 0 0 1-.042-.014.706.706 0 0 0-.071-.029.133.133 0 0 0-.042-.02c-.021-.014-.046-.025-.066-.037s-.025-.018-.038-.025a.325.325 0 0 1-.075-.055.094.094 0 0 1-.029-.021.54.54 0 0 1-.079-.074.184.184 0 0 1-.029-.029.72.72 0 0 1-.054-.066c-.008 0-.013-.014-.017-.018l-7.378-9.777v9.105a1.129 1.129 0 0 1-2.257 0v-12.491a.29.29 0 0 1 0-.062.223.223 0 0 1 0-.051.23.23 0 0 1 .008-.055c0-.02 0-.037.009-.059s.008-.033.012-.045.013-.037.017-.059l.021-.047a.3.3 0 0 1 .021-.053c0-.018.017-.033.021-.051s.017-.029.025-.047a.36.36 0 0 1 .033-.049.244.244 0 0 1 .025-.043.536.536 0 0 1 .038-.045.086.086 0 0 1 .029-.037.454.454 0 0 1 .042-.047.252.252 0 0 1 .033-.037.36.36 0 0 1 .042-.037c.017-.014.029-.025.046-.037a.128.128 0 0 0 .017-.018c.008 0 .017 0 .021-.012a.456.456 0 0 1 .055-.033.151.151 0 0 1 .042-.025.246.246 0 0 1 .054-.029c.017-.01.029-.018.046-.025a.3.3 0 0 0 .054-.021.248.248 0 0 1 .05-.016c.017-.01.033-.014.05-.021a.311.311 0 0 0 .059-.012c.017-.006.033-.006.046-.01a.441.441 0 0 1 .067-.008h.046a.355.355 0 0 1 .066 0h.046a.341.341 0 0 1 .063 0 .214.214 0 0 1 .05 0h.059a.35.35 0 0 0 .054.014l.05.012a.286.286 0 0 0 .058.018.159.159 0 0 0 .046.016l.05.025a.139.139 0 0 1 .05.021.442.442 0 0 1 .046.023c.017.014.038.021.054.035l.038.023a.438.438 0 0 1 .05.039l.038.023.042.043a.4.4 0 0 1 .042.037l.033.037a.481.481 0 0 1 .042.051s.012.012.012.016l7.382 9.777v-9.105a1.127 1.127 0 0 1 2.253 0V16624.098c0 .018 0 .033-.008.049s-.008.039-.013.059a.23.23 0 0 0-.008.051c-.008.016-.012.037-.021.059l-.017.041a.208.208 0 0 1-.021.055.605.605 0 0 0-.025.051.2.2 0 0 0-.021.045c-.013.021-.025.037-.034.055a.305.305 0 0 1-.025.037l-.038.051c-.008.012-.021.025-.029.037a.2.2 0 0 1-.042.041c-.013.018-.025.025-.038.043a.191.191 0 0 0-.038.033l-.05.037a.044.044 0 0 1-.017.018s-.008 0-.013.008a1 1 0 0 1-.138.088c-.008 0-.012 0-.021.008q-.069.032-.138.059a.034.034 0 0 0-.021.008 1.383 1.383 0 0 1-.15.033.2.2 0 0 0-.042.008.727.727 0 0 1-.15.014zm95.008-6.219a1.126 1.126 0 0 1 0-2.252h8.313a1.126 1.126 0 1 1 0 2.252zm-89.066-.012a1.125 1.125 0 1 1 0-2.25h8.313a1.125 1.125 0 0 1 0 2.25zm89.066-6.217a1.125 1.125 0 0 1 0-2.25h8.313a1.125 1.125 0 1 1 0 2.25zm-89.066-.01a1.124 1.124 0 1 1 0-2.248h8.313a1.124 1.124 0 0 1 0 2.248z" transform="translate(-7002.82 -16601.67)" style="stroke:transparent;stroke-miterlimit:10;opacity:.6;fill:#fff"/>
        </g>
        <g id="logo-2" data-name="logo" transform="translate(77 159.833)">
            <path id="패스_3777" data-name="패스 3777" class="cls-3" d="M-294.138 39.355a4.079 4.079 0 0 0 1.063-2.747 4.124 4.124 0 0 0-4.13-4.107h-4.814a1.123 1.123 0 0 0-1.127 1.12v12.455a1.123 1.123 0 0 0 1.127 1.12h5.244a4.377 4.377 0 0 0 4.385-4.359 4.348 4.348 0 0 0-1.748-3.482zm-6.756-4.615h3.689a1.875 1.875 0 0 1 1.878 1.867 1.875 1.875 0 0 1-1.878 1.867h-3.689zm4.118 10.216h-4.118v-4.241h4.118a2.129 2.129 0 0 1 2.132 2.121 2.128 2.128 0 0 1-2.132 2.121z" transform="translate(416.296 -30.273)"/>
            <path id="패스_3778" data-name="패스 3778" class="cls-3" d="m-441.5 45.651-5.159-12.451c-.014-.034-.029-.066-.047-.1s-.022-.037-.033-.055l-.023-.039c-.008-.013-.027-.036-.04-.054l-.026-.034-.042-.047-.032-.035-.044-.04-.037-.033-.049-.036-.04-.029a1.586 1.586 0 0 0-.067-.041l-.027-.016c-.033-.018-.067-.033-.1-.048l-.02-.007a.833.833 0 0 0-.084-.029l-.045-.012-.061-.015-.053-.009-.056-.007h-.22l-.05.007c-.02 0-.04.005-.059.009l-.052.013-.055.014-.064.023-.038.014a1.071 1.071 0 0 0-.1.047l-.053.031-.042.025-.052.038c-.012.009-.026.018-.037.028s-.031.026-.045.04-.026.022-.037.034a.468.468 0 0 0-.037.04l-.038.041-.03.039c-.011.013-.025.032-.036.05l-.026.042-.032.052c-.01.018-.033.065-.047.1l-5.165 12.45a1.117 1.117 0 0 0 .612 1.462 1.128 1.128 0 0 0 .428.085 1.127 1.127 0 0 0 1.042-.694l1.275-3.077h5.69l1.276 3.077a1.126 1.126 0 0 0 1.042.694 1.129 1.129 0 0 0 .428-.085 1.117 1.117 0 0 0 .607-1.462zm-8.12-4.463 1.917-4.626 1.917 4.626z" transform="translate(534.513 -30.275)"/>
            <path id="패스_3779" data-name="패스 3779" class="cls-3" d="M-507.308 32.5a1.124 1.124 0 0 0-1.126 1.12v4.854h-6.322v-4.853a1.124 1.124 0 0 0-1.127-1.12 1.124 1.124 0 0 0-1.127 1.12v12.455a1.124 1.124 0 0 0 1.127 1.12 1.124 1.124 0 0 0 1.127-1.12v-5.36h6.322v5.36a1.124 1.124 0 0 0 1.126 1.12 1.124 1.124 0 0 0 1.126-1.12V33.621a1.124 1.124 0 0 0-1.126-1.121z" transform="translate(583.904 -30.273)"/>
            <path id="패스_3780" data-name="패스 3780" class="cls-3" d="M-579.615 47.328a7.443 7.443 0 0 1-7.455-7.414 7.443 7.443 0 0 1 7.455-7.414 7.481 7.481 0 0 1 3.743 1 1.117 1.117 0 0 1 .407 1.531 1.129 1.129 0 0 1-1.54.4 5.219 5.219 0 0 0-2.611-.7 5.194 5.194 0 0 0-5.2 5.174 5.194 5.194 0 0 0 5.2 5.174 5.226 5.226 0 0 0 2.611-.7 1.129 1.129 0 0 1 1.54.4 1.116 1.116 0 0 1-.408 1.531 7.482 7.482 0 0 1-3.742 1.018z" transform="translate(638.811 -30.273)"/>
            <path id="패스_3781" data-name="패스 3781" class="cls-3" d="M-165.23 41.08a4.387 4.387 0 0 0 3.179-4.2 4.394 4.394 0 0 0-4.4-4.376h-5.613a1.123 1.123 0 0 0-1.126 1.12v12.455a1.123 1.123 0 0 0 1.126 1.12 1.124 1.124 0 0 0 1.127-1.12v-4.826h3.1l3.721 5.452a1.127 1.127 0 0 0 .934.491 1.125 1.125 0 0 0 .631-.193 1.116 1.116 0 0 0 .3-1.555zm-5.709-6.339h4.487a2.144 2.144 0 0 1 2.148 2.137 2.144 2.144 0 0 1-2.148 2.136h-4.487z" transform="translate(314.449 -30.273)"/>
            <path id="패스_3782" data-name="패스 3782" class="cls-3" d="M-369.476 33.6v-.023c0-.03 0-.06-.006-.089a1.113 1.113 0 0 0-.188-.5.02.02 0 0 1-.005-.007.91.91 0 0 0-.061-.078.142.142 0 0 0-.016-.018 1.121 1.121 0 0 0-.058-.062l-.02-.018a.855.855 0 0 0-.064-.056l-.019-.014a.98.98 0 0 0-.074-.052h-.006l-.015-.009c-.024-.015-.05-.029-.075-.043l-.03-.014-.069-.03-.041-.015-.061-.02-.052-.014-.053-.011c-.022 0-.042-.007-.064-.009l-.044-.006h-.226c-.022 0-.044.006-.066.01l-.044.007-.061.016-.045.012-.067.024-.034.013c-.03.013-.06.027-.089.043h-.007a1.115 1.115 0 0 0-.324.264l-.01.011c-.017.02-.033.042-.049.064s-.012.018-.018.027l-.012.017-4.629 7.207-4.629-7.207-.007-.01-.038-.053-.029-.039-.034-.038a1.39 1.39 0 0 0-.041-.046l-.026-.023-.056-.051-.021-.016c-.022-.017-.043-.034-.065-.049l-.029-.017c-.02-.013-.041-.027-.062-.039l-.049-.023-.047-.023a.585.585 0 0 0-.063-.023l-.038-.014-.062-.017-.044-.011-.053-.009-.058-.009H-381.857l-.042.005c-.022 0-.044.006-.068.01l-.047.01-.059.015-.052.017-.051.019-.056.025-.044.021a.911.911 0 0 0-.06.034l-.027.015-.01.007a.53.53 0 0 0-.054.039l-.038.029-.04.034-.044.04-.026.027c-.009.008-.033.035-.049.053l-.019.024c-.016.02-.032.041-.046.062l-.022.035-.035.056c-.011.019-.019.038-.028.057s-.014.025-.019.039a.755.755 0 0 0-.027.071c0 .01-.008.019-.011.029l-.019.07-.009.036-.011.06-.008.051c-.002.017 0 .033 0 .049v12.527a1.123 1.123 0 0 0 1.126 1.12 1.124 1.124 0 0 0 1.127-1.12v-8.621l3.5 5.454.008.01a1.14 1.14 0 0 0 .17.2l.036.031c.02.017.04.034.062.05l.047.033.022.016.027.014c.029.017.058.034.089.048s.035.017.054.024.056.022.083.031.04.014.061.019.057.013.086.018.039.009.06.011a1.079 1.079 0 0 0 .128.009h.031a1.089 1.089 0 0 0 .133-.009c.02 0 .041-.007.061-.011s.056-.01.085-.018l.061-.019c.021-.007.056-.019.083-.031l.054-.025c.031-.015.06-.031.089-.048.009-.006.019-.009.027-.015a.2.2 0 0 0 .022-.016l.046-.032.063-.051.035-.03a1.158 1.158 0 0 0 .17-.2l.008-.01 3.5-5.455v8.622A1.123 1.123 0 0 0-370.6 47.2a1.124 1.124 0 0 0 1.126-1.12V33.621a.165.165 0 0 1-.002-.021z" transform="translate(478.787 -30.273)"/>
            <g id="그룹_3217" data-name="그룹 3217" transform="translate(127 2.228)">
                <path id="패스_3783" data-name="패스 3783" class="cls-3" d="M-239.092 33.627a1.124 1.124 0 0 1 1.125-1.126h8.313a1.128 1.128 0 0 1 1.126 1.126 1.127 1.127 0 0 1-1.126 1.124h-8.313a1.123 1.123 0 0 1-1.125-1.124z" transform="translate(239.092 -32.501)"/>
                <path id="패스_3784" data-name="패스 3784" class="cls-3" d="M-239.092 62.585a1.125 1.125 0 0 1 1.125-1.127h8.313a1.129 1.129 0 0 1 1.126 1.127 1.127 1.127 0 0 1-1.126 1.124h-8.313a1.123 1.123 0 0 1-1.125-1.124z" transform="translate(239.092 -55.232)"/>
                <path id="패스_3785" data-name="패스 3785" class="cls-3" d="M-239.092 91.547a1.124 1.124 0 0 1 1.125-1.125h8.313a1.128 1.128 0 0 1 1.126 1.125 1.128 1.128 0 0 1-1.126 1.126h-8.313a1.124 1.124 0 0 1-1.125-1.126z" transform="translate(239.092 -77.968)"/>
            </g>
            <g id="그룹_3218" data-name="그룹 3218" transform="translate(37.929 2.217)">
                <path id="패스_3786" data-name="패스 3786" class="cls-3" d="M-650.93 33.58a1.127 1.127 0 0 1 1.127-1.126h8.313a1.127 1.127 0 0 1 1.125 1.126 1.125 1.125 0 0 1-1.125 1.12h-8.31a1.126 1.126 0 0 1-1.13-1.12z" transform="translate(650.93 -32.454)"/>
                <path id="패스_3787" data-name="패스 3787" class="cls-3" d="M-650.93 62.539a1.127 1.127 0 0 1 1.127-1.127h8.312a1.128 1.128 0 0 1 1.125 1.127 1.126 1.126 0 0 1-1.125 1.124h-8.309a1.126 1.126 0 0 1-1.13-1.124z" transform="translate(650.93 -55.186)"/>
                <path id="패스_3788" data-name="패스 3788" class="cls-3" d="M-650.93 91.5a1.127 1.127 0 0 1 1.127-1.125h8.313a1.126 1.126 0 0 1 1.125 1.125 1.126 1.126 0 0 1-1.125 1.126h-8.31a1.127 1.127 0 0 1-1.13-1.126z" transform="translate(650.93 -77.921)"/>
            </g>
            <path id="패스_3789" data-name="패스 3789" class="cls-3" d="M-710.271 33.574a1.124 1.124 0 0 0-1.125-1.12 1.124 1.124 0 0 0-1.127 1.12v9.105L-719.9 32.9l-.016-.018c-.012-.017-.026-.031-.038-.048s-.024-.026-.035-.039-.027-.025-.04-.036-.027-.028-.043-.041a.443.443 0 0 0-.037-.028.737.737 0 0 0-.05-.038l-.039-.026c-.018-.012-.036-.021-.053-.031l-.046-.025a.425.425 0 0 0-.051-.023l-.052-.023a.3.3 0 0 1-.047-.017.457.457 0 0 1-.057-.016l-.05-.013a.441.441 0 0 1-.055-.011l-.055-.007a.469.469 0 0 0-.052-.006h-.111a.419.419 0 0 0-.067 0 .266.266 0 0 0-.045 0l-.063.008c-.016 0-.032.006-.048.009l-.058.015-.049.016a.446.446 0 0 0-.053.02l-.051.02a.492.492 0 0 0-.048.024l-.053.027c-.015.008-.028.017-.042.026l-.053.035c-.007.006-.015.009-.021.015s-.011.01-.018.014l-.047.039-.04.036a.343.343 0 0 0-.036.037.6.6 0 0 0-.041.044l-.029.037-.038.051-.026.038a.37.37 0 0 0-.031.053l-.024.045-.024.05a.583.583 0 0 0-.021.053l-.018.046c-.007.019-.012.038-.017.058l-.012.048-.01.056a.5.5 0 0 0-.008.054.271.271 0 0 0 0 .05v12.56a1.124 1.124 0 0 0 1.128 1.12 1.124 1.124 0 0 0 1.126-1.12v-9.105l7.379 9.778a.167.167 0 0 1 .015.015.819.819 0 0 0 .056.066l.028.03c.025.025.053.051.079.074l.033.023a.688.688 0 0 0 .072.053c.012.009.026.016.04.025l.065.038a.32.32 0 0 1 .04.019.954.954 0 0 1 .074.03.19.19 0 0 0 .039.013l.082.025.035.008c.031.006.062.01.092.017a.178.178 0 0 1 .029 0c.039 0 .075.006.116.007h.011a1.188 1.188 0 0 0 .151-.011.112.112 0 0 1 .039-.007c.052-.01.1-.023.151-.036a.081.081 0 0 1 .021-.006 1.326 1.326 0 0 0 .138-.059.158.158 0 0 1 .021-.01 1.049 1.049 0 0 0 .138-.087c0-.005.01-.005.013-.009a.042.042 0 0 0 .018-.016.362.362 0 0 0 .048-.039l.04-.034.038-.039.039-.044.03-.036c.015-.017.026-.034.039-.05a.4.4 0 0 0 .024-.039.6.6 0 0 0 .033-.051c.008-.017.016-.03.023-.048a.358.358 0 0 0 .025-.049l.021-.053.016-.046a.536.536 0 0 0 .018-.057c0-.016.008-.033.01-.048s.008-.039.013-.058.006-.036.008-.052 0-.034 0-.052V46.033z" transform="translate(744.512 -30.237)"/>
            <path id="패스_6046" data-name="패스 6046" class="cls-3" d="M100.25 60.95a9.568 9.568 0 1 0 9.564 9.571 9.572 9.572 0 0 0-9.564-9.571zm0 14.355a4.785 4.785 0 1 1 4.783-4.784 4.785 4.785 0 0 1-4.783 4.779z" transform="translate(-90.679 -60.95)"/>
        </g>
    </g>
</svg>
