<svg xmlns="http://www.w3.org/2000/svg" width="40" height="40">
    <path fill="#374C5D" fill-rule="evenodd" d="M24 13v6.838l5.942 3.43c.956.552 1.284 1.776.732 2.732-.553.957-1.776 1.284-2.732.732l-6.929-4-.006-.006C20.408 22.381 20 21.741 20 21v-8c0-1.105.895-2 2-2s2 .895 2 2zm-2 24c-4.887 0-9.271-2.082-12.371-5.384-.057-.046-.126-.066-.179-.119-.781-.781-.781-2.047 0-2.828.781-.782 2.047-.782 2.828 0 .138.138.222.304.311.468l.101-.074C15.051 31.488 18.347 33 22 33c7.18 0 13-5.82 13-13S29.18 7 22 7C15.158 7 9.563 12.289 9.051 19h-4C5.571 10.079 12.949 3 22 3c9.389 0 17 7.611 17 17s-7.611 17-17 17zm-8.236-16.96l-6.2 6.705c-.312.337-.816.337-1.128 0l-6.2-6.705c-.311-.336-.311-.693 0-1.03h13.528c.311.337.311.694 0 1.03z"/>
</svg>
