<svg xmlns="http://www.w3.org/2000/svg" width="40" height="40">
    <path fill="#374C5D" fill-rule="evenodd" d="M35.445 38H4.556C2.592 38 1 36.433 1 34.5v-28C1 4.567 2.592 3 4.556 3h14.863c1.963 0 4.555 1.567 4.555 3.5v3.531h11.471c1.963 0 3.555 1.583 3.555 3.516V34.5c0 1.933-1.592 3.5-3.555 3.5zm-.422-24.016H23.006c-.122 0-.233-.045-.336-.108-.21.076-.434.124-.67.124-1.104 0-2-.895-2-2 0-.041.01-.08.012-.121v-.869-4.041H4.993V34.016h30.03V13.984zM12 22h11.172l-1.582-1.582c-.782-.781-.782-2.047 0-2.829.781-.781 2.047-.781 2.828 0l5.243 5.243c.781.781.781 2.048 0 2.829-.179.178-.383.304-.599.398l-4.693 4.349c-.763.763-1.999.763-2.761 0-.763-.762-.763-1.999 0-2.761L23.385 26H12c-.552 0-1-.448-1-1v-2c0-.552.448-1 1-1z" opacity=".2"/>
</svg>
