<svg xmlns="http://www.w3.org/2000/svg" width="40" height="40" viewBox="0 0 40 40">
    <path fill="#374C5D" fill-rule="evenodd" d="M36 34H11c-.552 0-1-.448-1-1v-2c0-.552.448-1 1-1h25c.552 0 1 .448 1 1v2c0 .552-.448 1-1 1zm0-12H11c-.552 0-1-.448-1-1v-2c0-.552.448-1 1-1h25c.552 0 1 .448 1 1v2c0 .552-.448 1-1 1zm0-12H11c-.552 0-1-.448-1-1V7c0-.552.448-1 1-1h25c.552 0 1 .448 1 1v2c0 .552-.448 1-1 1zM6 34H4c-.552 0-1-.448-1-1v-2c0-.552.448-1 1-1h2c.552 0 1 .448 1 1v2c0 .552-.448 1-1 1zm0-12H4c-.552 0-1-.448-1-1v-2c0-.552.448-1 1-1h2c.552 0 1 .448 1 1v2c0 .552-.448 1-1 1zm0-12H4c-.552 0-1-.448-1-1V7c0-.552.448-1 1-1h2c.552 0 1 .448 1 1v2c0 .552-.448 1-1 1z"/>
</svg>
