<svg 
 xmlns="http://www.w3.org/2000/svg"
 xmlns:xlink="http://www.w3.org/1999/xlink"
 width="40px" height="40px">
<path fill-rule="evenodd"  opacity="0" fill="rgb(255, 0, 0)"
 d="M0.000,-0.000 L40.000,-0.000 L40.000,40.000 L0.000,40.000 L0.000,-0.000 Z"/>
<path fill-rule="evenodd"  opacity="0" fill="rgb(255, 252, 0)"
 d="M4.000,4.000 L36.000,4.000 L36.000,36.000 L4.000,36.000 L4.000,4.000 Z"/>
<path fill-rule="evenodd"  opacity="0.6" fill="rgb(55, 76, 93)"
 d="M24.000,13.000 L24.000,19.838 L29.942,23.268 C30.898,23.820 31.226,25.044 30.674,26.000 C30.121,26.957 28.898,27.284 27.942,26.732 L21.013,22.732 C21.011,22.730 21.009,22.728 21.007,22.726 C20.408,22.381 20.000,21.741 20.000,21.000 L20.000,13.000 C20.000,11.895 20.895,11.000 22.000,11.000 C23.105,11.000 24.000,11.895 24.000,13.000 ZM22.000,37.000 C17.113,37.000 12.729,34.918 9.629,31.616 C9.572,31.570 9.503,31.550 9.450,31.497 C8.669,30.716 8.669,29.450 9.450,28.669 C10.231,27.887 11.497,27.887 12.278,28.669 C12.416,28.807 12.500,28.973 12.589,29.137 L12.690,29.063 C15.051,31.488 18.347,33.000 22.000,33.000 C29.180,33.000 35.000,27.180 35.000,20.000 C35.000,12.820 29.180,7.000 22.000,7.000 C15.158,7.000 9.563,12.289 9.051,19.000 L5.050,19.000 C5.571,10.079 12.949,3.000 22.000,3.000 C31.389,3.000 39.000,10.611 39.000,20.000 C39.000,29.389 31.389,37.000 22.000,37.000 ZM13.764,20.040 L7.564,26.745 C7.252,27.082 6.748,27.082 6.436,26.745 L0.236,20.040 C-0.075,19.704 -0.075,19.347 0.236,19.010 L13.764,19.010 C14.075,19.347 14.075,19.704 13.764,20.040 Z"/>
</svg>