<svg xmlns="http://www.w3.org/2000/svg" width="40" height="40" viewBox="0 0 40 40">
    <path data-name="빼기 109" d="M10299-9264h-24a4 4 0 0 1-4-4v-24a4 4 0 0 1 4-4h16v4h-16v24h24v-8h4v8a4 4 0 0 1-4 4z" transform="translate(-10269.001 9302)" style="fill:#1c90fb"/>
    <path d="m1706.435 405.365-15.65 16.015a2.032 2.032 0 0 1-2.843.006l-6.339-6.1a1.966 1.966 0 0 1 0-2.792 1.992 1.992 0 0 1 2.807 0l4.931 4.723 14.261-14.667a2.011 2.011 0 0 1 2.833 0 1.986 1.986 0 0 1 0 2.815z" transform="translate(-1670.022 -394.963)" style="fill:#1c90fb"/>
</svg>
