<svg id="btn_setting_none" xmlns="http://www.w3.org/2000/svg" width="40" height="40" viewBox="0 0 40 40">
    <defs>
        <style>
            .cls-2{fill:#a2aeb9}
        </style>
    </defs>
    <g id="icon" transform="translate(-470.053 -59.75)">
        <path id="패스_41" data-name="패스 41" class="cls-2" d="m493.158 64.75.664 4.643a11.473 11.473 0 0 1 3.762 2.17l4.359-1.748 3.1 5.37-3.69 2.892a11.226 11.226 0 0 1 0 4.346l3.69 2.892-3.1 5.37-4.359-1.748a11.473 11.473 0 0 1-3.762 2.17l-.664 4.643h-6.209l-.665-4.643a11.473 11.473 0 0 1-3.762-2.17l-4.359 1.748-3.1-5.37 3.69-2.892a11.279 11.279 0 0 1 0-4.346l-3.69-2.892 3.1-5.37 4.359 1.748a11.473 11.473 0 0 1 3.762-2.17l.665-4.643h6.209m0-4h-6.209a4 4 0 0 0-3.966 3.434l-.353 2.462c-.224.122-.447.25-.665.383l-2.311-.926a4.008 4.008 0 0 0-4.961 1.712l-3.1 5.37a4 4 0 0 0 1 5.146l1.952 1.529c0 .131-.005.261-.005.39s0 .259.005.39l-1.952 1.529a4 4 0 0 0-1 5.146l3.1 5.37a4.008 4.008 0 0 0 4.961 1.712l2.311-.926c.218.133.441.261.665.383l.353 2.462a4 4 0 0 0 3.966 3.434h6.209a4 4 0 0 0 3.965-3.434l.352-2.462q.338-.183.665-.383l2.311.926a4.008 4.008 0 0 0 4.961-1.712l3.1-5.37a4 4 0 0 0-1-5.146l-1.952-1.529q.006-.2.006-.39t-.006-.39l1.952-1.529a4 4 0 0 0 1-5.146l-3.1-5.37a4.008 4.008 0 0 0-4.961-1.712l-2.311.926q-.327-.2-.665-.383l-.352-2.462a4 4 0 0 0-3.965-3.434z"/>
        <path id="패스_42" data-name="패스 42" class="cls-2" d="M490.027 73.25a7 7 0 1 0 7 7 7 7 0 0 0-7-7zm0 10a3 3 0 1 1 3-3 3 3 0 0 1-3 3z" transform="translate(.026)"/>
    </g>
</svg>
