<svg xmlns="http://www.w3.org/2000/svg" width="40" height="40" viewBox="0 0 40 40">
    <path d="M917 716a4 4 0 0 1-4-4v-16a4 4 0 0 1 4-4h2v-5.5a7.966 7.966 0 0 1 2.99-6.011A10.168 10.168 0 0 1 928.5 678h3a10.172 10.172 0 0 1 6.511 2.489A7.966 7.966 0 0 1 941 686.5v5.5h2a4 4 0 0 1 4 4v16a4 4 0 0 1-4 4zm0-4h26v-16h-26zm7.964-28.536A4.58 4.58 0 0 0 923 687v5h14v-5a4.579 4.579 0 0 0-1.965-3.536A6.8 6.8 0 0 0 931 682h-2a6.809 6.809 0 0 0-4.036 1.464zM928 706v-4a2 2 0 0 1 4 0v4a2 2 0 1 1-4 0z" transform="translate(-910 -677)" style="fill:#374c5d"/>
</svg>
