<svg xmlns="http://www.w3.org/2000/svg" width="14" height="14" viewBox="0 0 14 14">
    <path fill="rgba(255,0,0,0)" d="M0 0H14V14H0z"/>
    <path fill="#ffc600" d="M385.733 361.607a.5.5 0 0 0-.4-.34l-3.194-.464-1.429-2.9a.52.52 0 0 0-.9 0l-1.429 2.9-3.194.464a.5.5 0 0 0-.278.853l2.312 2.254-.545 3.181a.5.5 0 0 0 .725.527l2.857-1.5 2.858 1.5a.493.493 0 0 0 .233.058.506.506 0 0 0 .294-.1.5.5 0 0 0 .2-.489l-.546-3.182 2.312-2.253a.5.5 0 0 0 .124-.509z" transform="translate(-373.757 -355.651)"/>
</svg>
