<svg xmlns="http://www.w3.org/2000/svg" id="ic_doc_share_receive" width="14" height="14" viewBox="0 0 14 14">
    <defs>
        <style>
            .cls-2{fill:#3c3f50}
        </style>
    </defs>
    <g id="그룹_33441" transform="translate(-676.066 -186.5)">
        <path id="패스_54285" d="M683.066 193a2 2 0 1 1 2-2 2 2 0 0 1-2 2zm0-3a1 1 0 1 0 1 1 1 1 0 0 0-1-1z" class="cls-2"/>
        <path id="합치기_973" fill="#fc6d51" stroke="rgba(0,0,0,0)" stroke-miterlimit="10" d="M20958.211 13655.351l-2-2a.5.5 0 0 1 0-.7l2-2a.5.5 0 0 1 .709 0 .5.5 0 0 1 0 .7l-1.146 1.147h2.793a.5.5 0 1 1 0 1h-2.793l1.146 1.147a.5.5 0 0 1 0 .7.488.488 0 0 1-.352.147.5.5 0 0 1-.357-.141z" transform="translate(-20273 -13456.5)"/>
        <path id="패스_54288" d="M678.566 198a.5.5 0 0 1-.5-.5 3.5 3.5 0 0 1 3.5-3.5h1.5a.5.5 0 0 1 0 1h-1.5a2.5 2.5 0 0 0-2.5 2.5.5.5 0 0 1-.5.5z" class="cls-2"/>
    </g>
</svg>
