<svg xmlns="http://www.w3.org/2000/svg" width="24" height="24" viewBox="0 0 24 24">
    <g style="stroke:#111;fill:none">
        <path d="M0 0h14v12a3 3 0 0 1-3 3H3a3 3 0 0 1-3-3V0z" style="stroke:none" transform="translate(5 6)"/>
        <path d="M.5.5h13V12a2.5 2.5 0 0 1-2.5 2.5H3A2.5 2.5 0 0 1 .5 12V.5z" style="fill:none" transform="translate(5 6)"/>
    </g>
    <path transform="translate(3.5 6.5)" style="stroke-linecap:round;stroke:#111;fill:none" d="M0 0h17"/>
    <g style="stroke:#111;fill:none">
        <path d="M0 0h10v2a2 2 0 0 1-2 2H2a2 2 0 0 1-2-2V0z" style="stroke:none" transform="rotate(180 8.5 3.5)"/>
        <path d="M.5.5h9V2A1.5 1.5 0 0 1 8 3.5H2A1.5 1.5 0 0 1 .5 2V.5z" style="fill:none" transform="rotate(180 8.5 3.5)"/>
    </g>
    <path data-name="선" transform="translate(10.5 10.5)" style="stroke-linecap:round;stroke:#111;fill:none" d="M0 0v6"/>
    <path data-name="선" transform="translate(13.5 10.5)" style="stroke-linecap:round;stroke:#111;fill:none" d="M0 0v6"/>
</svg>
