<svg xmlns="http://www.w3.org/2000/svg" width="36" height="36" viewBox="0 0 36 36">
    <g style="fill:#9fdbfd">
        <path d="M27.222 26.438H2.777C1.522 26.438.5 25.404.5 24.133V2.631C.5 1.456 1.361.5 2.42.5h7.568c.75 0 1.457.32 1.993.9l2.388 2.859.15.18h12.704c1.255 0 2.277 1.033 2.277 2.304v17.39c0 1.271-1.022 2.305-2.278 2.305z" style="stroke:none" transform="translate(3 5)"/>
        <path d="M27.222 25.938c.98 0 1.778-.81 1.778-1.805V6.743c0-.995-.798-1.805-1.778-1.805H14.285l-2.68-3.207C11.166 1.26 10.592 1 9.988 1H2.419C1.637 1 1 1.732 1 2.63v21.503c0 .995.797 1.805 1.777 1.805h24.445m0 1H2.777C1.244 26.938 0 25.682 0 24.133V2.631C0 1.177 1.082 0 2.42 0h7.558c.892-.003 1.748.382 2.379 1.071l2.396 2.867h12.47C28.755 3.938 30 5.194 30 6.743v17.39c0 1.55-1.244 2.805-2.778 2.805z" style="fill:#4fbaf7;stroke:none" transform="translate(3 5)"/>
    </g>
    <path data-name="패스 3741" d="M501.218 281.528h-5.9v-6.622l1.177 1.156a1.032 1.032 0 0 0 1.439 0 .988.988 0 0 0 0-1.414l-2.856-2.8-.016-.024a1.043 1.043 0 0 0-1.447 0l-.014.022-2.856 2.806a.988.988 0 0 0 0 1.414 1.032 1.032 0 0 0 1.439 0l1.1-1.08v7.546a1.034 1.034 0 0 0 .814 1h7.125a1 1 0 1 0 0-2z" transform="translate(-473.442 -256.528)" style="fill:#21a8f5"/>
</svg>
