<svg xmlns="http://www.w3.org/2000/svg" width="18" height="18" viewBox="0 0 18 18">
    <path data-name="패스 3313" d="m240.178 303.2-.659-4.646-.083-.586.431-.405 2.97-2.8a.7.7 0 0 0 .131-.669.774.774 0 0 0-.572-.5l-3.835-.748-.521-.1-.258-.463-2.2-3.938a.62.62 0 0 0-.545-.343.791.791 0 0 0-.673.379l-2.18 3.9-.258.463-.52.1-3.851.752a.65.65 0 0 0-.316 1.162l2.878 2.822.414.4-.082.571-.66 4.649a.717.717 0 0 0 .695.787.654.654 0 0 0 .3-.072l3.748-1.872.519-.259.515.266 3.629 1.869a.642.642 0 0 0 .672-.053.7.7 0 0 0 .311-.666z" transform="translate(-226 -286.999)" style="fill:#ffc602"/>
</svg>
