<svg xmlns="http://www.w3.org/2000/svg" width="18" height="18" viewBox="0 0 18 18">
    <path data-name="패스 3344" d="m149.276 284.783 3.219-1.609.519-.259.455-.227.451.233.514.266 3.083 1.587-.576-4.061-.083-.586-.073-.514.377-.355.431-.4 2.5-2.359-3.313-.647-.521-.1-.455-.089-.226-.4-.259-.463-1.922-3.446-1.925 3.446-.258.463-.226.4-.456.089-.52.1-3.236.632 2.454 2.407.414.4.363.355-.073.5-.082.569-.577 4.066m8.623 1.232a.649.649 0 0 1-.293-.07l-3.63-1.869-.515-.266-.518.259-3.748 1.872a.658.658 0 0 1-.3.072.673.673 0 0 1-.4-.138.684.684 0 0 1-.29-.649l.66-4.649.082-.572-.413-.4-2.878-2.822a.65.65 0 0 1 .317-1.161l3.851-.752.519-.1.259-.462 2.179-3.9a.79.79 0 0 1 .673-.38.621.621 0 0 1 .545.343l2.2 3.938.258.462.521.1 3.835.748a.773.773 0 0 1 .572.5.7.7 0 0 1-.131.669l-2.97 2.8-.431.4.083.586.659 4.646a.7.7 0 0 1-.313.674.633.633 0 0 1-.381.123z" transform="translate(-144.395 -269.021)" style="fill:#c4c4c4"/>
</svg>
