<svg xmlns="http://www.w3.org/2000/svg" width="38" height="38" viewBox="0 0 38 38">
    <circle cx="19" cy="19" r="19" style="fill:#4ac6a8"/>
    <path data-name="ic" d="M-3415.353-1046.646a.5.5 0 0 1 0-.708l3.146-3.146H-3419a.5.5 0 0 1-.5-.5.5.5 0 0 1 .5-.5h6.793l-3.146-3.146a.5.5 0 0 1 0-.708.5.5 0 0 1 .707 0l4 4a.491.491 0 0 1 .109.163.5.5 0 0 1 0 .383.509.509 0 0 1-.109.163l-4 4a.5.5 0 0 1-.354.146.5.5 0 0 1-.353-.147zm-13.647-1.521a7.174 7.174 0 0 1 7.166-7.166h3.853a.5.5 0 0 1 .487.513.5.5 0 0 1-.513.487h-3.826a6.173 6.173 0 0 0-6.166 6.166.5.5 0 0 1-.5.5.5.5 0 0 1-.501-.5zm5-12.833a4 4 0 0 1 4-4 4 4 0 0 1 4 4 4.005 4.005 0 0 1-4 4 4 4 0 0 1-4-4zm1 0a3 3 0 0 0 3 3 3 3 0 0 0 3-3 3 3 0 0 0-3-3 3 3 0 0 0-3 3z" transform="translate(3439 1075)" style="fill:#fff"/>
</svg>
