<svg xmlns="http://www.w3.org/2000/svg" width="38" height="38" viewBox="0 0 38 38">
    <circle cx="19" cy="19" r="19" style="fill:#ed9d1d"/>
    <path data-name="합치기 438" d="M13880.5-2724a2 2 0 0 1-2-2v-14h-1a.5.5 0 0 1-.5-.5.5.5 0 0 1 .5-.5h4v-1a2 2 0 0 1 2-2h5a2 2 0 0 1 2 2v1h4a.5.5 0 0 1 .5.5.5.5 0 0 1-.5.5h-1v14a2 2 0 0 1-2 2zm-1-2a1 1 0 0 0 1 1h11a1 1 0 0 0 1-1v-14h-13zm3-16v1h7v-1a1 1 0 0 0-1-1h-5a1 1 0 0 0-1 1zm5 13v-7a.5.5 0 0 1 .5-.5.5.5 0 0 1 .5.5v7a.5.5 0 0 1-.5.5.5.5 0 0 1-.5-.5zm-4 0v-7a.5.5 0 0 1 .5-.5.5.5 0 0 1 .5.5v7a.5.5 0 0 1-.5.5.5.5 0 0 1-.5-.5z" transform="translate(-13867 2753)" style="fill:#fff;stroke:transparent;stroke-miterlimit:10"/>
</svg>
