<svg xmlns="http://www.w3.org/2000/svg" width="38" height="38" viewBox="0 0 38 38">
    <circle cx="19" cy="19" r="19" style="fill:#f87397"/>
    <path data-name="빼기 498" d="M-2192-1972h-14a2 2 0 0 1-2-2v-14a2 2 0 0 1 2-2h14a2 2 0 0 1 2 2v14a2 2 0 0 1-2 2zm-14-17a1 1 0 0 0-1 1v14a1 1 0 0 0 1 1h14a1 1 0 0 0 1-1v-14a1 1 0 0 0-1-1z" transform="translate(2218 2000)" style="fill:#fff"/>
    <path data-name="패스 5187" d="M578 169.5h-2.5V167a.5.5 0 0 0-1 0v2.5H572a.5.5 0 0 0 0 1h2.5v2.5a.5.5 0 0 0 1 0v-2.5h2.5a.5.5 0 0 0 0-1z" transform="translate(-556 -151)" style="stroke:transparent;fill:#fff;stroke-miterlimit:10"/>
</svg>
