<svg xmlns="http://www.w3.org/2000/svg" width="22" height="22" viewBox="0 0 22 22">
    <path d="M3124.471-1916.808a2 2 0 0 1-2-2v-16a2 2 0 0 1 2-2h8.5a.5.5 0 0 1 .193.039.5.5 0 0 1 .162.109l5 5a.511.511 0 0 1 .108.162.5.5 0 0 1 .04.193v12.5a2 2 0 0 1-2 2zm-1-18v16a1 1 0 0 0 1 1h12a1 1 0 0 0 1-1v-12h-4.5a.5.5 0 0 1-.5-.5v-4.5h-8a1 1 0 0 0-1 1zm10 3h3.293l-3.293-3.293zm-5.6 10.552a.5.5 0 0 1-.3-.644l.387-1.067h-1a.5.5 0 0 1-.5-.5.5.5 0 0 1 .5-.5h1.362l.726-2h-1.09a.505.505 0 0 1-.5-.5.506.506 0 0 1 .5-.5h1.455l.551-1.514a.5.5 0 0 1 .643-.3.5.5 0 0 1 .3.639l-.427 1.172h1.384l.551-1.514a.5.5 0 0 1 .643-.3.5.5 0 0 1 .3.639l-.426 1.172h1.037a.506.506 0 0 1 .5.5.505.505 0 0 1-.5.5h-1.4l-.726 2h1.127a.5.5 0 0 1 .5.5.5.5 0 0 1-.5.5h-1.489l-.511 1.407a.508.508 0 0 1-.479.33.513.513 0 0 1-.164-.026.5.5 0 0 1-.3-.644l.387-1.067h-1.389l-.512 1.407a.505.505 0 0 1-.475.331.508.508 0 0 1-.161-.021zm1.513-2.706h1.389l.727-2h-1.387z" transform="translate(-3119.471 1937.809)" style="fill:#3c3f50"/>
</svg>
