<svg xmlns="http://www.w3.org/2000/svg" width="38" height="38" viewBox="0 0 38 38">
    <circle cx="19" cy="19" r="19" style="fill:#eb7785"/>
    <path data-name="패스 5554" d="M822 260h-10a2 2 0 0 0-2 2v2h-2a2 2 0 0 0-2 2v10a2 2 0 0 0 2 2h10a2 2 0 0 0 2-2v-2h2a2 2 0 0 0 2-2v-10a2 2 0 0 0-2-2zm-3 16a1 1 0 0 1-1 1h-10a1 1 0 0 1-1-1v-10a1 1 0 0 1 1-1h10a1 1 0 0 1 1 1zm4-4a1 1 0 0 1-1 1h-2v-7a2 2 0 0 0-2-2h-7v-2a1 1 0 0 1 1-1h10a1 1 0 0 1 1 1z" transform="translate(-796 -250)" style="fill:#fff"/>
</svg>
