<svg xmlns="http://www.w3.org/2000/svg" width="22" height="22" viewBox="0 0 22 22">
    <path data-name="패스 5586" d="M460 549a5 5 0 1 0 5 5 5 5 0 0 0-5-5zm0 9a4 4 0 1 1 4-4 4 4 0 0 1-4 4z" transform="translate(-444 -538)" style="fill:#3c3f50"/>
    <path data-name="패스 5587" d="M460.5 553.77v-1.793a.5.5 0 0 0-1 0v2a.512.512 0 0 0 .147.354l1.414 1.414a.5.5 0 0 0 .707-.707z" transform="translate(-444 -538)" style="fill:#3c3f50"/>
    <path data-name="합치기 692" d="M3245-1894a2 2 0 0 1-2-2v-16a2 2 0 0 1 2-2h8.5a.5.5 0 0 1 .192.04.483.483 0 0 1 .162.108l5 5a.5.5 0 0 1 .108.162.511.511 0 0 1 .039.192v2.966a.5.5 0 0 1-.5.5.5.5 0 0 1-.5-.5V-1908h-4.5a.5.5 0 0 1-.5-.5v-4.5h-8a1 1 0 0 0-1 1v16a1 1 0 0 0 1 1h5.5a.5.5 0 0 1 .5.5.5.5 0 0 1-.5.5zm9-15h3.293l-3.293-3.293zm-6.571 9.5a.468.468 0 0 1-.428-.5.469.469 0 0 1 .428-.5h2.143a.469.469 0 0 1 .428.5.468.468 0 0 1-.428.5zm-.02-4a.461.461 0 0 1-.409-.5.461.461 0 0 1 .409-.5h4.583a.461.461 0 0 1 .409.5.462.462 0 0 1-.409.5z" transform="translate(-3240 1915)" style="stroke:transparent;fill:#3c3f50;stroke-miterlimit:10"/>
</svg>
