<svg xmlns="http://www.w3.org/2000/svg" width="38" height="38" viewBox="0 0 38 38">
    <circle cx="19" cy="19" r="19" style="fill:#8b8bf0"/>
    <path data-name="패스 5755" d="M2030.155 268.838a.5.5 0 0 0-.109-.545l-4-4a.5.5 0 0 0-.707.707l3.146 3.146h-6.793a.5.5 0 0 0 0 1h6.793l-3.146 3.147a.5.5 0 0 0 .707.707l4-4a.507.507 0 0 0 .109-.162z" transform="translate(-2001.694 -244.897)" style="fill:#fff;stroke:transparent;stroke-miterlimit:10"/>
    <path data-name="ic" d="M2699.836-1829.755h-5.516a1 1 0 0 1-1-1v-16a1 1 0 0 1 1-1h8v4.5a.5.5 0 0 0 .5.5h4.5v3.42a.5.5 0 0 0 .5.5.5.5 0 0 0 .5-.5v-3.92a.479.479 0 0 0-.039-.192.5.5 0 0 0-.108-.162l-5-5a.482.482 0 0 0-.161-.108.509.509 0 0 0-.193-.039h-8.5a2 2 0 0 0-2 2v16a2 2 0 0 0 2 2h5.516a.5.5 0 0 0 .5-.5.5.5 0 0 0-.499-.499zm3.484-17.293 3.293 3.293h-3.293z" transform="translate(-2681.32 1857.755)" style="fill:#fff;stroke:transparent;stroke-miterlimit:10"/>
</svg>
