<svg xmlns="http://www.w3.org/2000/svg" width="38" height="38" viewBox="0 0 38 38">
    <circle cx="19" cy="19" r="19" style="fill:#b662d8"/>
    <path data-name="합치기 501" d="M13434.226-2854a.5.5 0 0 1-.5-.5.5.5 0 0 1 .5-.5h6.552a.5.5 0 0 1 .5.5.5.5 0 0 1-.5.5zm-9.726 0a.5.5 0 0 1-.5-.5v-5.587a.506.506 0 0 1 .148-.354l10.958-10.971a2 2 0 0 1 2.83 0l3.535 3.539a2.01 2.01 0 0 1 0 2.834l-10.883 10.893a.5.5 0 0 1-.354.148zm.5-5.88v4.88h5.03l8.41-8.424a.568.568 0 0 1-.092-.061l-4.871-4.878zm10.815-10.826-1.633 1.633 4.871 4.878a.454.454 0 0 1 .064.094l1.646-1.65a1 1 0 0 0 0-1.417l-3.535-3.539a.994.994 0 0 0-.707-.293.992.992 0 0 0-.707.3z" transform="translate(-13414 2882)" style="fill:#fff;stroke:transparent;stroke-miterlimit:10"/>
</svg>
