<svg xmlns="http://www.w3.org/2000/svg" width="18" height="18" viewBox="0 0 18 18">
    <path data-name="패스 14190" d="M102.2 110.707a2.215 2.215 0 0 0-.456-.069h-10.5a2.168 2.168 0 0 0-.467.069 1.793 1.793 0 0 0-1.282 1.708v15.524a.641.641 0 0 0 .26.506.96.96 0 0 0 .581.192.894.894 0 0 0 .559-.19l4.376-3.123 1.226-.891 1.225.891 4.376 3.123a.894.894 0 0 0 .56.189.786.786 0 0 0 .837-.7v-15.5a1.8 1.8 0 0 0-1.295-1.729zm-1.646 6.1-1.816 1.77.429 2.5a.294.294 0 0 1-.292.345.279.279 0 0 1-.138-.034l-2.244-1.18-2.244 1.18a.3.3 0 0 1-.43-.312l.428-2.5-1.815-1.77a.3.3 0 0 1 .164-.5l2.509-.365 1.122-2.274a.31.31 0 0 1 .422-.112.316.316 0 0 1 .112.112l1.121 2.276 2.508.364a.3.3 0 0 1 .164.506z" transform="translate(-87.496 -110.638)" style="fill:#ffc602"/>
</svg>
