<svg xmlns="http://www.w3.org/2000/svg" width="18" height="18.003" viewBox="0 0 18 18.003">
    <path data-name="패스 13804" d="M210.016 88.215V73.151a.794.794 0 0 0-.554-.77 1.177 1.177 0 0 0-.223-.034h-10.451a1.106 1.106 0 0 0-.225.035.785.785 0 0 0-.547.749v15.084l4.189-3 1.223-.889.588-.427.588.427 1.223.889 4.189 3m.158 1.132a.9.9 0 0 1-.558-.189l-4.375-3.133-1.225-.89-1.225.89-4.375 3.133a.891.891 0 0 1-.557.189.783.783 0 0 1-.843-.7V73.124a1.782 1.782 0 0 1 1.283-1.707 2.178 2.178 0 0 1 .467-.07h10.5a2.215 2.215 0 0 1 .457.069 1.792 1.792 0 0 1 1.293 1.731v15.5a.782.782 0 0 1-.842.7z" transform="translate(-195.016 -71.344)" style="fill:#c4c4c4"/>
    <g data-name="패스 14227" style="fill:none">
        <path d="m121.557 116.807-1.816 1.77.429 2.5a.294.294 0 0 1-.292.345.279.279 0 0 1-.138-.034l-2.244-1.18-2.244 1.18a.3.3 0 0 1-.43-.312l.428-2.5-1.815-1.77a.3.3 0 0 1 .164-.5l2.509-.365 1.122-2.274a.31.31 0 0 1 .422-.112.316.316 0 0 1 .112.112l1.121 2.276 2.508.364a.3.3 0 0 1 .164.506z" style="stroke:none" transform="translate(-108.496 -110.639)"/>
        <path d="m117.496 115.381-.724 1.468-1.618.235 1.17 1.142-.276 1.611 1.448-.76 1.447.76-.277-1.609 1.172-1.142-1.618-.235-.724-1.47m.001-1.873a.31.31 0 0 1 .267.153l1.121 2.276 2.508.364a.297.297 0 0 1 .164.506l-1.816 1.77.429 2.498a.296.296 0 0 1-.118.29.297.297 0 0 1-.312.021l-2.244-1.18-2.244 1.18a.296.296 0 0 1-.4-.125c-.03-.057-.041-.123-.03-.187l.428-2.499-1.815-1.77a.296.296 0 0 1 .164-.505l2.509-.365 1.122-2.274a.31.31 0 0 1 .267-.153z" style="fill:#c4c4c4;stroke:none" transform="translate(-108.496 -110.639)"/>
    </g>
    <g data-name="패스 14227" style="fill:none">
        <path d="m121.557 116.807-1.816 1.77.429 2.5a.294.294 0 0 1-.292.345.279.279 0 0 1-.138-.034l-2.244-1.18-2.244 1.18a.3.3 0 0 1-.43-.312l.428-2.5-1.815-1.77a.3.3 0 0 1 .164-.5l2.509-.365 1.122-2.274a.31.31 0 0 1 .422-.112.316.316 0 0 1 .112.112l1.121 2.276 2.508.364a.3.3 0 0 1 .164.506z" style="stroke:none" transform="translate(-108.496 -110.638)"/>
        <path d="m117.496 115.381-.724 1.468-1.618.235 1.17 1.142-.276 1.611 1.448-.76 1.447.76-.277-1.609 1.172-1.142-1.618-.235-.724-1.47m.001-1.873a.31.31 0 0 1 .267.153l1.121 2.276 2.508.364a.297.297 0 0 1 .164.506l-1.816 1.77.429 2.498a.296.296 0 0 1-.118.29.297.297 0 0 1-.312.021l-2.244-1.18-2.244 1.18a.296.296 0 0 1-.4-.125c-.03-.057-.041-.123-.03-.187l.428-2.499-1.815-1.77a.296.296 0 0 1 .164-.505l2.509-.365 1.122-2.274a.31.31 0 0 1 .267-.153z" style="fill:#c4c4c4;stroke:none" transform="translate(-108.496 -110.638)"/>
    </g>
</svg>
