<svg xmlns="http://www.w3.org/2000/svg" width="14" height="14" viewBox="0 0 14 14">
    <path data-name="패스 14207" d="M98.575 110.687a1.582 1.582 0 0 0-.326-.049h-7.5a1.549 1.549 0 0 0-.334.049 1.281 1.281 0 0 0-.916 1.22V123a.458.458 0 0 0 .186.362.686.686 0 0 0 .415.137.639.639 0 0 0 .4-.136l3.127-2.231.876-.637.875.637 3.127 2.231a.638.638 0 0 0 .4.135.561.561 0 0 0 .6-.5v-11.074a1.285 1.285 0 0 0-.93-1.237zm-1.175 4.359-1.3 1.265.307 1.785a.21.21 0 0 1-.209.246.2.2 0 0 1-.1-.024l-1.6-.843-1.6.843a.212.212 0 0 1-.307-.223l.306-1.786-1.3-1.265a.211.211 0 0 1 .117-.361l1.793-.261.8-1.625a.221.221 0 0 1 .3-.08.226.226 0 0 1 .08.08l.8 1.626 1.792.26a.212.212 0 0 1 .117.362z" transform="translate(-87.496 -110.638)" style="fill:#ffc602"/>
</svg>
