<svg xmlns="http://www.w3.org/2000/svg" width="14" height="14" viewBox="0 0 14 14">
    <path data-name="패스 13674" d="M219.9 89.469V79.432a.544.544 0 0 0-.226-.493.4.4 0 0 0-.06-.011h-7.434a.451.451 0 0 0-.058.011.533.533 0 0 0-.222.476v10.054l2.481-2.073.872-.74.647-.548.647.548.872.74 2.481 2.073m.4 1.46a.578.578 0 0 1-.4-.157l-3.125-2.611-.875-.742-.875.742-3.125 2.611a.576.576 0 0 1-.4.157.593.593 0 0 1-.6-.585V79.409a1.472 1.472 0 0 1 .917-1.422 1.316 1.316 0 0 1 .333-.059h7.5a1.37 1.37 0 0 1 .327.058 1.481 1.481 0 0 1 .923 1.442v10.916a.592.592 0 0 1-.6.585z" transform="translate(-208.898 -77.925)" style="fill:#7b7b7b"/>
    <g data-name="패스 14230" style="fill:none">
        <path d="m97.4 115.046-1.3 1.265.307 1.785a.21.21 0 0 1-.209.246.2.2 0 0 1-.1-.024l-1.6-.843-1.6.843a.212.212 0 0 1-.307-.223l.306-1.786-1.3-1.265a.211.211 0 0 1 .117-.361l1.793-.261.8-1.625a.221.221 0 0 1 .3-.08.226.226 0 0 1 .08.08l.8 1.626 1.792.26a.212.212 0 0 1 .117.362z" style="stroke:none" transform="translate(-87.496 -110.639)"/>
        <path d="m94.498 114.673-.328.664-.733.106.53.517-.125.73.656-.345.654.344-.125-.728.53-.517-.732-.106-.327-.665m0-1.985a.221.221 0 0 1 .191.11l.801 1.626 1.792.26a.212.212 0 0 1 .117.362l-1.297 1.264.306 1.785a.21.21 0 0 1-.209.246.2.2 0 0 1-.098-.024l-1.603-.843-1.604.843a.212.212 0 0 1-.307-.222l.306-1.786-1.297-1.265a.211.211 0 0 1 .117-.36l1.793-.261.801-1.625a.221.221 0 0 1 .192-.11z" style="fill:#7b7b7b;stroke:none" transform="translate(-87.496 -110.639)"/>
    </g>
</svg>
