<svg xmlns="http://www.w3.org/2000/svg" width="22" height="22" viewBox="0 0 22 22">
    <path data-name="합치기 974" d="M-1412.685 14980.135a2.192 2.192 0 0 1 0-2.268c1.188-1.982 4.186-5.867 9.4-5.867s8.21 3.885 9.4 5.867a2.192 2.192 0 0 1 0 2.268c-1.188 1.979-4.182 5.867-9.4 5.867s-8.215-3.889-9.4-5.867zm3.81-5.16a12.687 12.687 0 0 0-2.949 3.407 1.182 1.182 0 0 0 0 1.237 12.622 12.622 0 0 0 2.949 3.4 8.851 8.851 0 0 0 5.589 1.978 8.854 8.854 0 0 0 5.593-1.978 12.622 12.622 0 0 0 2.949-3.4 1.182 1.182 0 0 0 0-1.237 12.687 12.687 0 0 0-2.949-3.407 8.873 8.873 0 0 0-5.593-1.975 8.871 8.871 0 0 0-5.589 1.975zm2.591 4.024a3 3 0 0 1 3-3 3 3 0 0 1 3 3 3 3 0 0 1-3 3 3 3 0 0 1-3-2.999zm1 0a2 2 0 0 0 2 2 2 2 0 0 0 2-2 2 2 0 0 0-2-2 2 2 0 0 0-1.999 2.001z" transform="translate(1414.287 -14968)" style="fill:#3c77ea;stroke:transparent;stroke-miterlimit:10"/>
</svg>
