<svg xmlns="http://www.w3.org/2000/svg" width="24" height="24" viewBox="0 0 24 24">
    <g style="fill:none">
        <path d="M9.11 1.74a1 1 0 0 1 1.78 0l2.137 4.177a1 1 0 0 0 .7.527l4.516.861A1 1 0 0 1 18.8 8.96l-3.23 3.55a1 1 0 0 0-.252.8l.621 4.815a1 1 0 0 1-1.444 1.02L10.452 17.1a1 1 0 0 0-.9 0L5.5 19.146a1 1 0 0 1-1.444-1.02l.621-4.815a1 1 0 0 0-.252-.8L1.2 8.96a1 1 0 0 1 .554-1.66l4.516-.856a1 1 0 0 0 .7-.527z" style="stroke:none" transform="translate(2 2)"/>
        <path d="M10 2.196 7.863 6.372a1.987 1.987 0 0 1-1.406 1.053l-4.516.861 3.229 3.55c.396.435.58 1.019.504 1.602l-.62 4.815 4.042-2.048a2.01 2.01 0 0 1 1.808 0l4.043 2.048-.621-4.815a1.997 1.997 0 0 1 .504-1.602l3.229-3.55-4.516-.86a1.987 1.987 0 0 1-1.406-1.054L10 2.196m0-1c.352 0 .705.181.89.544l2.137 4.177a1 1 0 0 0 .703.527l4.516.86A1 1 0 0 1 18.8 8.96l-3.23 3.55a1 1 0 0 0-.251.8l.62 4.816a1 1 0 0 1-1.443 1.02l-4.043-2.048a1 1 0 0 0-.904 0l-4.043 2.048a1 1 0 0 1-1.444-1.02l.621-4.815a1 1 0 0 0-.252-.8L1.201 8.96a1 1 0 0 1 .553-1.656l4.516-.861a1 1 0 0 0 .703-.527L9.11 1.74a.989.989 0 0 1 .89-.544z" style="fill:#111;stroke:none" transform="translate(2 2)"/>
    </g>
</svg>
