<svg xmlns="http://www.w3.org/2000/svg" width="22" height="22" viewBox="0 0 22 22">
    <g style="fill:none">
        <path d="M9.715 14C4.5 14 1.5 10.115.317 8.133a2.186 2.186 0 0 1 0-2.267C1.5 3.885 4.5 0 9.715 0s8.21 3.885 9.4 5.867a2.186 2.186 0 0 1 0 2.267C17.925 10.115 14.93 14 9.715 14z" style="stroke:none" transform="translate(1.285 4)"/>
        <path d="M9.715 13c2.043 0 3.924-.665 5.59-1.976 1.422-1.118 2.39-2.469 2.95-3.405.233-.388.233-.85 0-1.238-.56-.936-1.528-2.287-2.95-3.405C13.64 1.665 11.759 1 9.716 1c-2.043 0-3.924.665-5.59 1.976-1.422 1.118-2.39 2.469-2.95 3.405-.233.388-.233.85 0 1.238.56.936 1.528 2.287 2.95 3.405C5.79 12.335 7.671 13 9.714 13m0 1C4.5 14 1.505 10.115.317 8.133a2.186 2.186 0 0 1 0-2.266C1.505 3.885 4.5 0 9.715 0s8.21 3.885 9.398 5.867a2.186 2.186 0 0 1 0 2.266C17.925 10.115 14.93 14 9.715 14z" style="fill:#3c3f50;stroke:none" transform="translate(1.285 4)"/>
    </g>
    <g transform="translate(8 8)" style="stroke:#3c3f50;fill:none">
        <circle cx="3" cy="3" r="3" style="stroke:none"/>
        <circle cx="3" cy="3" r="2.5" style="fill:none"/>
    </g>
</svg>
