<svg xmlns="http://www.w3.org/2000/svg" width="18" height="18" viewBox="0 0 18 18">
    <g data-name="그룹 14373">
        <path data-name="패스 14048" d="M387.4 241.821a.5.5 0 0 0 .5-.5v-6a.5.5 0 0 0-1 0v6a.5.5 0 0 0 .5.5z" transform="translate(-376.905 -228.821)" style="fill:#7b7b7b"/>
        <path data-name="패스 14049" d="M385.4 241.821a.5.5 0 0 0 .5-.5v-6a.5.5 0 0 0-1 0v6a.5.5 0 0 0 .5.5z" transform="translate(-376.905 -228.821)" style="fill:#7b7b7b"/>
        <path data-name="패스 14050" d="M383.4 241.821a.5.5 0 0 0 .5-.5v-6a.5.5 0 0 0-1 0v6a.5.5 0 0 0 .5.5z" transform="translate(-376.905 -228.821)" style="fill:#7b7b7b"/>
        <path data-name="패스 14051" d="M391.9 231.821h-4.5v-1a1 1 0 0 0-1-1h-3a1 1 0 0 0-1 1v1h-4.5a.5.5 0 0 0 0 1h1.5v11a1 1 0 0 0 1 1h9a1 1 0 0 0 1-1v-11h1.5a.5.5 0 0 0 0-1zm-8.5-1h3v1h-3zm6 13h-9v-11h9z" style="fill:#7b7b7b" transform="translate(-376.405 -228.821)"/>
    </g>
</svg>
