<svg xmlns="http://www.w3.org/2000/svg" width="40" height="40" viewBox="0 0 40 40">
    <path data-name="빼기 11" d="M5749 5885h-30a4 4 0 0 1-4-4v-27a4 4 0 0 1 4-4h15a4 4 0 0 1 4 4v3h11a4 4 0 0 1 4 4v20a4 4 0 0 1-4 4zm-30-31v27h30v-20h-13a2 2 0 0 1-2-2v-5z" transform="translate(-5714 -5847)" style="stroke:transparent;stroke-miterlimit:10;fill:#a2aeb9"/>
    <path data-name="합치기 938" d="M19746.1 21522.117v-3.877l-3.057-3.059a1.5 1.5 0 0 1 2.123-2.123l2.438 2.439 2.439-2.439a1.5 1.5 0 0 1 2.123 2.123l-3.062 3.063v3.873a1.5 1.5 0 0 1-3 0zm-7.5 0v-4.443l-1.414 1.414a1.642 1.642 0 0 1-2.236 0l-1.352-1.35v4.379a1.5 1.5 0 1 1-3 0v-8a1.5 1.5 0 0 1 2.525-1.092l.057.055 2.885 2.885 2.885-2.885a1.5 1.5 0 0 1 .8-.418 1.551 1.551 0 0 1 .346-.041 1.5 1.5 0 0 1 1.5 1.5v8a1.5 1.5 0 1 1-3 0z" transform="translate(-19721.602 -21494.617)" style="fill:#a2aeb9"/>
</svg>
