<svg xmlns="http://www.w3.org/2000/svg" width="40" height="40" viewBox="0 0 40 40">
    <g style="fill:transparent;stroke-linejoin:round">
        <path d="M65.22 879.985a.696.696 0 0 1-.33-.086l-8.394-4.658-.971-.538-.97.538-8.397 4.66a.662.662 0 0 1-.71-.04.69.69 0 0 1-.28-.675l1.638-10.076.161-.993-.7-.721-7.06-7.268a.685.685 0 0 1-.16-.698.679.679 0 0 1 .54-.459l9.634-1.476 1.056-.162.452-.968 4.188-8.96c.111-.237.35-.39.608-.39.26 0 .498.152.608.388l4.19 8.962.453.968 1.056.162 9.635 1.477a.68.68 0 0 1 .538.462c.081.242.022.51-.156.692l-7.065 7.27-.7.72.16.994 1.638 10.077a.69.69 0 0 1-.277.676.671.671 0 0 1-.385.122z" style="stroke:none" transform="translate(-36 -844)"/>
        <path d="m55.526 850.826-2.985 6.385a4 4 0 0 1-3.017 2.26l-7.109 1.09 5.286 5.441a4 4 0 0 1 1.079 3.429l-1.202 7.395 6.006-3.333a4 4 0 0 1 3.882 0l6.006 3.332-1.202-7.394a4 4 0 0 1 1.08-3.43l5.287-5.44-7.108-1.09a4 4 0 0 1-3.017-2.259l-2.986-6.386m0-5.811c1.036 0 1.981.601 2.42 1.543l4.19 8.96 9.634 1.477a2.688 2.688 0 0 1 1.51 4.527l-7.062 7.267 1.638 10.078a2.692 2.692 0 0 1-1.095 2.628 2.679 2.679 0 0 1-2.835.157l-8.4-4.662-8.401 4.662a2.675 2.675 0 0 1-2.833-.157 2.695 2.695 0 0 1-1.098-2.628l1.638-10.078-7.06-7.267a2.688 2.688 0 0 1 1.509-4.527l9.637-1.477 4.187-8.96a2.673 2.673 0 0 1 2.42-1.543z" style="fill:#5ac0ff;stroke:none" transform="translate(-36 -844)"/>
    </g>
</svg>
