<svg xmlns="http://www.w3.org/2000/svg" width="40" height="40">
    <path fill="#374C5D" fill-rule="evenodd" d="M37.971 27.421l-6.363 6.364c-.782.781-2.048.781-2.829 0l-6.364-6.364c-.781-.781-.781-2.047 0-2.828.781-.781 2.048-.781 2.829 0l2.968 2.969V7.772c0-1.105.895-2 1.999-2s2 .895 2 2v19.754l2.932-2.933c.781-.781 2.047-.781 2.828 0 .782.781.782 2.047 0 2.828zM23 10H3c-1.105 0-2-.895-2-2s.895-2 2-2h20c1.105 0 2 .895 2 2s-.895 2-2 2zM3 14h17c1.105 0 2 .895 2 2s-.895 2-2 2H3c-1.105 0-2-.895-2-2s.895-2 2-2zm0 8h13c1.105 0 2 .895 2 2s-.895 2-2 2H3c-1.105 0-2-.895-2-2s.895-2 2-2zm0 8h9c1.105 0 2 .895 2 2s-.895 2-2 2H3c-1.105 0-2-.895-2-2s.895-2 2-2z"/>
</svg>
