<svg id="icon_info" xmlns="http://www.w3.org/2000/svg" width="40" height="40" viewBox="0 0 40 40">
    <defs>
        <style>
            .cls-3{fill:#374c5d}
        </style>
    </defs>
    <path id="Ellipse_4" data-name="Ellipse 4" class="cls-3" d="M1198 2099a18.941 18.941 0 1 1 7.4-1.493 18.882 18.882 0 0 1-7.4 1.493zm0-34a15 15 0 1 0 10.607 4.393A14.9 14.9 0 0 0 1198 2065z" transform="translate(-1178 -2060)"/>
    <path id="icon_ver" class="cls-3" d="m1194.147 2087.633 3.35-8.23a.418.418 0 0 0-.3-.536c-.247-.072-.732.194-1.15.573l-2.025 2.016a7.7 7.7 0 0 1-.005-1.123c1.522-1.89 4.019-3.382 5.715-3.382 1.612.138 2.373 1.2 2.093 2.374l-3.373 8.275a.424.424 0 0 0 .317.486c.248.072.77-.195 1.189-.573l2.024-2.017a7.653 7.653 0 0 1-.036 1.159c-1.521 1.889-3.068 3.347-5.674 3.347-1.781-.241-2.511-1.294-2.125-2.369zm2.513-14.252a2.667 2.667 0 1 1 2.651 2.37 2.522 2.522 0 0 1-2.651-2.371z" transform="translate(-1178 -2060)"/>
</svg>
