<svg xmlns="http://www.w3.org/2000/svg" width="40" height="40" viewBox="0 0 40 40">
    <path data-name="빼기 11" d="M5749 5885h-30a4 4 0 0 1-4-4v-27a4 4 0 0 1 4-4h15a4 4 0 0 1 4 4v3h11a4 4 0 0 1 4 4v20a4 4 0 0 1-4 4zm-30-31v27h30v-20h-13a2 2 0 0 1-2-2v-5z" transform="translate(-5714 -5847)" style="stroke:transparent;stroke-miterlimit:10;fill:#a2aeb9"/>
    <path data-name="합치기 937" d="m19739.064 20882.613-4.553-2.021a3 3 0 1 1 0-5.184l4.555-2.025a3 3 0 1 1 .947 2.865l-3.939 1.752 3.941 1.752a3 3 0 0 1 4.985 2.248 3 3 0 0 1-5.937.615z" transform="translate(-19713 -20854)" style="fill:#a2aeb9"/>
</svg>
