<svg xmlns="http://www.w3.org/2000/svg" width="40" height="40" viewBox="0 0 40 40">
    <g>
        <path fill="#26acfb" d="M1189.919 693.754h28v-22.4l-8.4-9.8h-19.6z" transform="translate(-1183.92 -657.654)"/>
        <path fill="#fff" d="M1192.719 678.354a7 7 0 1 1 7 7 7 7 0 0 1-7-7zm4.2 0a2.8 2.8 0 1 0 2.8-2.8 2.8 2.8 0 0 0-2.8 2.8zm12.6 5.6a1.4 1.4 0 1 1 0-2.8h2.8a1.4 1.4 0 1 1 0 2.8zm0-4.2a1.4 1.4 0 1 1 0-2.8h2.8a1.4 1.4 0 1 1 0 2.8zm0-4.2a1.4 1.4 0 1 1 0-2.8h2.8a1.4 1.4 0 1 1 0 2.8z" transform="translate(-1183.92 -657.654)"/>
    </g>
</svg>
