<svg xmlns="http://www.w3.org/2000/svg" width="22" height="22" viewBox="0 0 22 22">
    <path data-name="패스 5433" d="m702.338 221.831-1.1-1.1V211.4a2.407 2.407 0 0 0-2.4-2.4h-7.62a2.407 2.407 0 0 0-2.4 2.4v9.283l-1.143 1.143a2.5 2.5 0 0 0 0 3.539l2.9 2.9a2.508 2.508 0 0 0 3.538 0l.9-.9.9.9a2.508 2.508 0 0 0 3.538 0l2.9-2.9a2.507 2.507 0 0 0 0-3.539zm-12.407-11 4.379 4.379-4.5 4.505V211.4a1.386 1.386 0 0 1 .121-.568zm10.178 0a1.387 1.387 0 0 1 .125.573v8.315l-4.507-4.506zM698.83 210a1.386 1.386 0 0 1 .572.125l-4.382 4.382-4.382-4.382a1.386 1.386 0 0 1 .572-.125zm-5.437 17.563a1.546 1.546 0 0 1-2.124 0l-2.9-2.9a1.5 1.5 0 0 1 0-2.124l.9-.9 5.023 5.024zm8.238-2.9-2.9 2.9a1.5 1.5 0 0 1-2.124 0l-.9-.9-5.716-5.717.3-.3 4.723-4.722 6.614 6.614a1.508 1.508 0 0 1 0 2.125z" transform="translate(-684 -208)" style="fill:#c3c5c9"/>
</svg>
