<svg xmlns="http://www.w3.org/2000/svg" width="22" height="22" viewBox="0 0 22 22">
    <path data-name="합치기 434" d="M14340.192-3100.885h-2.558l1-1h12.092a2.368 2.368 0 0 0 .533-.04 1.114 1.114 0 0 0-.1-.195l-1.974-2.59a.479.479 0 0 1-.1-.3v-4.373a8.976 8.976 0 0 0-.371-2.579l.774-.774a9.461 9.461 0 0 1 .594 3.354v4.2l1.9 2.493a1.218 1.218 0 0 1 .2 1.264c-.3.537-1.048.537-1.448.537h-4.644a3 3 0 0 1-2.949 2.5 3 3 0 0 1-2.949-2.497zm2.95 1.5a2 2 0 0 0 1.927-1.5h-3.857a2 2 0 0 0 1.931 1.499zm-8.854-.274a.5.5 0 0 1 0-.706l.6-.6a1.186 1.186 0 0 1-.713-.45 1.18 1.18 0 0 1-.059-1.149.511.511 0 0 1 .069-.122l1.9-2.536v-4.164c0-4.092 2.144-6.955 5.5-7.424v-.692a1.5 1.5 0 0 1 1.5-1.5 1.5 1.5 0 0 1 1.5 1.5v.692a5.86 5.86 0 0 1 3.9 2.251l2.81-2.81a.5.5 0 0 1 .706 0 .5.5 0 0 1 0 .706l-17 17a.494.494 0 0 1-.353.148.494.494 0 0 1-.359-.145zm8.295-17.841v1.142a.5.5 0 0 1-.465.5c-3.714.267-5.035 3.523-5.035 6.476v4.33a.514.514 0 0 1-.1.3l-1.955 2.608a.333.333 0 0 0-.025.173 1.166 1.166 0 0 0 .583.086h.22l11.98-11.98a4.851 4.851 0 0 0-3.739-2 .5.5 0 0 1-.461-.5v-1.138a.5.5 0 0 0-.5-.5.5.5 0 0 0-.502.503z" transform="translate(-14332.09 3119.693)" style="fill:#3c77ea"/>
</svg>
