<svg xmlns="http://www.w3.org/2000/svg" width="22" height="22" viewBox="0 0 22 22">
    <path d="M-3423-1725a2 2 0 0 1-2-2v-12a2 2 0 0 1 2-2h16a2 2 0 0 1 2 2v12a2 2 0 0 1-2 2zm-1-14v12a1 1 0 0 0 1 1h16a1 1 0 0 0 1-1v-12a.989.989 0 0 0-.044-.295.5.5 0 0 1-.152.191l-7.9 6.038a1.5 1.5 0 0 1-.911.309 1.5 1.5 0 0 1-.9-.3l-7.992-6.041a.517.517 0 0 1-.083-.08 1 1 0 0 0-.018.178zm.7-.9 7.991 6.042a.5.5 0 0 0 .6 0l7.9-6.038a.508.508 0 0 1 .1-.058.992.992 0 0 0-.291-.046h-16a.992.992 0 0 0-.352.064.494.494 0 0 1 .052.036z" transform="translate(3426 1744)" style="fill:#c3c5c9"/>
</svg>
