<svg xmlns="http://www.w3.org/2000/svg" width="22" height="22" viewBox="0 0 22 22">
    <path data-name="패스 5062" d="m303.8 498.556-16.139-8.381a.525.525 0 0 0-.133-.046 1.46 1.46 0 0 0-1.256.276 1.078 1.078 0 0 0-.345.917.571.571 0 0 0 .021.108l2.392 7.57-2.388 7.57a.571.571 0 0 0-.021.108 1.078 1.078 0 0 0 .345.917 1.349 1.349 0 0 0 .9.312 1.793 1.793 0 0 0 .353-.036.525.525 0 0 0 .133-.046l16.139-8.382a.5.5 0 0 0 0-.887zm-16.862-7.4a.475.475 0 0 1 .332-.052l14.251 7.4h-12.289zm.332 15.749a.309.309 0 0 1-.338-.122l2.295-7.278h12.3z" transform="translate(-284 -488)" style="fill:#3c3f50"/>
</svg>
