<svg xmlns="http://www.w3.org/2000/svg" width="22" height="22" viewBox="0 0 22 22">
    <path fill="rgb(60, 63, 80)" stroke="rgba(0,0,0,0)" stroke-miterlimit="10" d="M3177.433-944.221a2.96 2.96 0 0 1 2.458-2.916v-.664a.745.745 0 0 0-.745-.744h-8.095a.745.745 0 0 0-.745.744v.664a2.96 2.96 0 0 1 2.457 2.916 2.958 2.958 0 0 1-2.957 2.958 2.958 2.958 0 0 1-2.958-2.958 2.96 2.96 0 0 1 2.458-2.916v-.664a1.747 1.747 0 0 1 1.745-1.745h3.548v-1.874a3.115 3.115 0 0 1-2.614-3.074 3.113 3.113 0 0 1 3.113-3.113 3.113 3.113 0 0 1 3.113 3.113 3.114 3.114 0 0 1-2.613 3.074v1.874h3.547a1.747 1.747 0 0 1 1.745 1.745v.664a2.96 2.96 0 0 1 2.457 2.916 2.958 2.958 0 0 1-2.956 2.958 2.958 2.958 0 0 1-2.958-2.958zm1 0a1.961 1.961 0 0 0 1.958 1.958 1.96 1.96 0 0 0 1.957-1.958 1.959 1.959 0 0 0-1.957-1.957 1.96 1.96 0 0 0-1.958 1.957zm-10.585 0a1.961 1.961 0 0 0 1.958 1.958 1.96 1.96 0 0 0 1.957-1.958 1.959 1.959 0 0 0-1.957-1.957 1.96 1.96 0 0 0-1.958 1.957zm5.137-10.273a2.115 2.115 0 0 0 2.113 2.113 2.116 2.116 0 0 0 2.113-2.113 2.116 2.116 0 0 0-2.113-2.113 2.115 2.115 0 0 0-2.113 2.113z" transform="translate(-3164.098 960.436)"/>
</svg>
