<svg xmlns="http://www.w3.org/2000/svg" width="22" height="22" viewBox="0 0 22 22">
    <path data-name="area 22" style="fill:transparent" d="M0 0h22v22H0z"/>
    <path data-name="area 18" transform="translate(2 2)" style="fill:transparent" d="M0 0h18v18H0z"/>
    <path data-name="합치기 110" d="M-625.621-1312.494v-8h-8a.5.5 0 0 1-.5-.5.5.5 0 0 1 .5-.5h8v-8a.5.5 0 0 1 .5-.5.5.5 0 0 1 .5.5v8h8a.5.5 0 0 1 .5.5.5.5 0 0 1-.5.5h-8v8a.5.5 0 0 1-.5.5.5.5 0 0 1-.5-.5z" transform="translate(636.117 1331.994)" style="fill:#3c3f50"/>
</svg>
