<svg id="ic_draw_link" xmlns="http://www.w3.org/2000/svg" width="22" height="22" viewBox="0 0 22 22">
    <defs>
        <style>
            .cls-2{fill:rgb(60, 63, 80)}
        </style>
    </defs>
    <path id="사각형_29195" data-name="사각형 29195" style="fill:none" d="M0 0h22v22H0z"/>
    <path id="패스_56217" data-name="패스 56217" class="cls-2" d="M9 6a5.006 5.006 0 0 1 5 5 .5.5 0 0 1-1 0 4.005 4.005 0 0 0-4-4H6a4 4 0 0 0 0 8h1a.5.5 0 0 1 0 1H6A5 5 0 0 1 6 6z"/>
    <path id="패스_56218" data-name="패스 56218" class="cls-2" d="M13 16a5.006 5.006 0 0 1-5-5 .5.5 0 0 1 1 0 4.005 4.005 0 0 0 4 4h3a4 4 0 0 0 0-8h-1a.5.5 0 0 1 0-1h1a5 5 0 0 1 0 10z"/>
</svg>
