<svg xmlns="http://www.w3.org/2000/svg" width="38" height="38" viewBox="0 0 38 38">
    <circle cx="19" cy="19" r="19" style="fill:#bfcbe2"/>
    <path data-name="area 38" style="fill:transparent" d="M0 0h38v38H0z"/>
    <path d="M373.173 462.822a19.43 19.43 0 0 1-24.83.081 18.792 18.792 0 0 0 9.262-6.133s.607-.723 0-2.34-2.425-2.665-2.734-4.754l-.039-.74a.978.978 0 0 1-.311.065 1.054 1.054 0 0 1-1.032-1.075v-2.15a1.054 1.054 0 0 1 1.032-1.075c.031 0 .056.016.087.018l-.074-1.391c-.2-3.356 1.667-6 4.959-6.528.025-.006.036-.015.065-.02 1.622-.284 4.192.046 5.032-.316 1.021-.44 1.546-.236 1.038.855a4.084 4.084 0 0 1-.516.863 6.262 6.262 0 0 1 1.788 5.147l-.075 1.39c.029 0 .055-.018.085-.018a1.054 1.054 0 0 1 1.032 1.075v2.15a1.054 1.054 0 0 1-1.034 1.074.98.98 0 0 1-.315-.066l-.136.8c-.11 2.022-2.212 3.519-2.634 4.694a3.841 3.841 0 0 0 0 2.345 20.113 20.113 0 0 0 9.35 6.049z" transform="translate(-341.525 -429.347)" style="fill:rgba(255,255,255,.85);fill-rule:evenodd"/>
</svg>
