<svg xmlns="http://www.w3.org/2000/svg" width="22" height="22" viewBox="0 0 22 22">
    <path data-name="합치기 571" d="M14503.155-4445a1.465 1.465 0 0 1-1.461-1.25l-.27-1.829a7.8 7.8 0 0 1-.771-.44l-1.793.7a1.49 1.49 0 0 1-1.821-.638l-1.84-3.1a1.452 1.452 0 0 1 .364-1.873l1.509-1.144c-.008-.149-.015-.295-.015-.43s.007-.281.015-.43l-1.5-1.147a1.432 1.432 0 0 1-.36-1.883l1.843-3.1a1.469 1.469 0 0 1 1.8-.627l1.8.707a8.189 8.189 0 0 1 .769-.437l.273-1.847a1.452 1.452 0 0 1 1.457-1.231h3.694a1.458 1.458 0 0 1 1.457 1.25l.27 1.829a7.164 7.164 0 0 1 .772.437l1.8-.7a1.5 1.5 0 0 1 1.821.648l1.836 3.089a1.452 1.452 0 0 1-.357 1.869l-1.516 1.151c.012.149.015.288.015.43s0 .28-.015.43l1.5 1.144a1.437 1.437 0 0 1 .383 1.847l-1.861 3.14a1.472 1.472 0 0 1-1.808.623l-1.8-.7a8.4 8.4 0 0 1-.772.44l-.27 1.843a1.455 1.455 0 0 1-1.457 1.235zm-2.156-4.488a6.686 6.686 0 0 0 1.089.616.5.5 0 0 1 .288.382l.31 2.1a.457.457 0 0 0 .47.386h3.694a.46.46 0 0 0 .466-.368l.31-2.12a.5.5 0 0 1 .292-.382 6.734 6.734 0 0 0 1.085-.619.5.5 0 0 1 .467-.051l2.04.794a.473.473 0 0 0 .579-.189l1.861-3.137a.438.438 0 0 0-.12-.557l-1.724-1.312a.5.5 0 0 1-.192-.448c.021-.218.032-.415.032-.608s-.011-.39-.032-.612a.5.5 0 0 1 .192-.448l1.728-1.315a.44.44 0 0 0 .1-.576l-1.836-3.092a.492.492 0 0 0-.6-.208l-2.022.794a.514.514 0 0 1-.47-.059 6.929 6.929 0 0 0-1.085-.612.505.505 0 0 1-.292-.386l-.31-2.1a.456.456 0 0 0-.466-.39h-3.694a.457.457 0 0 0-.466.372l-.313 2.116a.489.489 0 0 1-.288.382 7.219 7.219 0 0 0-1.089.62.5.5 0 0 1-.463.055l-2.044-.8a.469.469 0 0 0-.575.193l-1.851 3.122a.433.433 0 0 0 .109.572l1.723 1.312a.494.494 0 0 1 .193.448q-.032.328-.032.612c0 .189.011.393.032.608a.5.5 0 0 1-.193.452l-1.727 1.308a.445.445 0 0 0-.1.583l1.832 3.092a.5.5 0 0 0 .6.2l2.025-.791a.535.535 0 0 1 .179-.036.52.52 0 0 1 .289.097zm.514-5.511a3.455 3.455 0 0 1 3.486-3.41 3.453 3.453 0 0 1 3.486 3.41 3.449 3.449 0 0 1-3.486 3.406 3.451 3.451 0 0 1-3.486-3.407zm1 0a2.451 2.451 0 0 0 2.484 2.408 2.452 2.452 0 0 0 2.487-2.408 2.449 2.449 0 0 0-2.487-2.408 2.448 2.448 0 0 0-2.482 2.407z" transform="translate(-14494 4466)" style="fill:#3c77ea"/>
</svg>
