<svg xmlns="http://www.w3.org/2000/svg" width="22" height="22" viewBox="0 0 22 22">
    <g>
        <path fill="none" fill-rule="evenodd" stroke="rgb(255, 255, 255)" d="M806.793 1076.035a9 9 0 1 1-9 9 9 9 0 0 1 9-9z" transform="translate(-795.793 -1074.035)"/>
        <path fill="rgb(255, 255, 255)" d="M807.513 1081.183a.917.917 0 0 0-.659.264.854.854 0 0 0-.275.636.845.845 0 0 0 .275.634.96.96 0 0 0 1.316 0 .847.847 0 0 0 .273-.634.856.856 0 0 0-.273-.636.911.911 0 0 0-.657-.264zm.247 7.014a.671.671 0 0 1-.426-.1.486.486 0 0 1-.123-.386 2.185 2.185 0 0 1 .038-.333 3.866 3.866 0 0 1 .086-.391l.389-1.423a2.25 2.25 0 0 0 .079-.43c.014-.157.021-.266.021-.328a.95.95 0 0 0-.306-.732 1.243 1.243 0 0 0-.871-.281 2.123 2.123 0 0 0-.664.115q-.352.116-.736.276l-.1.441q.113-.045.273-.093a1.041 1.041 0 0 1 .311-.049.61.61 0 0 1 .419.107.535.535 0 0 1 .109.382 1.75 1.75 0 0 1-.036.335c-.024.122-.053.252-.088.389l-.391 1.428c-.035.15-.06.285-.076.4a2.627 2.627 0 0 0-.024.349.939.939 0 0 0 .315.727 1.276 1.276 0 0 0 .885.286 1.95 1.95 0 0 0 .65-.1q.279-.1.749-.292l.1-.44a1.751 1.751 0 0 1-.261.091 1.186 1.186 0 0 1-.322.055z" transform="translate(-795.792 -1074.035)"/>
    </g>
</svg>
