<svg xmlns="http://www.w3.org/2000/svg" width="22" height="22" viewBox="0 0 22 22">
    <g data-name="패스 13494" style="fill:none">
        <path d="M17.753 78.938a.645.645 0 0 0-.764-.109l-3.848 2.093-3.61-4.652a.656.656 0 0 0-1.062 0l-3.61 4.651-3.848-2.092a.645.645 0 0 0-.764.109.845.845 0 0 0-.216.826L2.7 89.443a.717.717 0 0 0 .675.557h11.25a.717.717 0 0 0 .673-.557l2.672-9.679a.845.845 0 0 0-.217-.826z" style="stroke:none" transform="translate(2 -70.001)"/>
        <path d="m9 77.217-3.873 4.99-3.983-2.167L3.617 89h10.765l2.474-8.96-3.984 2.167L9 77.217M9 76c.204 0 .397.099.531.27l3.61 4.652 3.848-2.093a.645.645 0 0 1 .764.11.845.845 0 0 1 .216.825l-2.672 9.679c-.09.33-.363.557-.672.557H3.375c-.31 0-.583-.226-.673-.557L.03 79.764a.845.845 0 0 1 .217-.826.645.645 0 0 1 .764-.109l3.847 2.093 3.61-4.651A.674.674 0 0 1 9 76z" style="fill:#3c3f50;stroke:none" transform="translate(2 -70.001)"/>
    </g>
    <g data-name="사각형 4028" transform="translate(4.5 17)" style="stroke:#3c3f50;fill:none">
        <path style="stroke:none" d="M0 0h13v1H0z"/>
        <rect x=".5" y=".5" width="12" style="fill:none"/>
    </g>
    <g data-name="타원 3223" transform="translate(19 6)" style="stroke:#3c3f50;fill:none">
        <circle cx="1.5" cy="1.5" r="1.5" style="stroke:none"/>
        <circle cx="1.5" cy="1.5" r="1" style="fill:none"/>
    </g>
    <g data-name="타원 3224" transform="translate(0 6)" style="stroke:#3c3f50;fill:none">
        <circle cx="1.5" cy="1.5" r="1.5" style="stroke:none"/>
        <circle cx="1.5" cy="1.5" r="1" style="fill:none"/>
    </g>
    <g data-name="타원 3231" transform="translate(9.5 3)" style="stroke:#3c3f50;fill:none">
        <circle cx="1.5" cy="1.5" r="1.5" style="stroke:none"/>
        <circle cx="1.5" cy="1.5" r="1" style="fill:none"/>
    </g>
</svg>
