<svg xmlns="http://www.w3.org/2000/svg" width="22" height="22" viewBox="0 0 22 22">
    <path d="M295 540a.445.445 0 0 1 .4.258l2.262 4.847a1 1 0 0 0 .755.565l5.2.8a.446.446 0 0 1 .355.3.456.456 0 0 1-.1.462l-3.814 3.932a1 1 0 0 0-.269.856l.884 5.455a.458.458 0 0 1-.182.442.438.438 0 0 1-.255.082.447.447 0 0 1-.212-.055l-4.539-2.522a1 1 0 0 0-.971 0l-4.535 2.521a.444.444 0 0 1-.215.056.434.434 0 0 1-.252-.08.456.456 0 0 1-.186-.447l.885-5.452a1 1 0 0 0-.269-.856l-3.815-3.933a.457.457 0 0 1-.1-.458.447.447 0 0 1 .354-.3l5.206-.8a1 1 0 0 0 .754-.565l2.263-4.848A.442.442 0 0 1 295 540m0-1a1.443 1.443 0 0 0-1.307.835l-2.262 4.847-5.2.8a1.454 1.454 0 0 0-.816 2.448l3.814 3.932-.885 5.452a1.456 1.456 0 0 0 .593 1.421 1.435 1.435 0 0 0 1.53.085L295 556.3l4.538 2.522a1.445 1.445 0 0 0 2.122-1.506l-.884-5.452 3.814-3.932a1.454 1.454 0 0 0-.816-2.448l-5.2-.8-2.262-4.847A1.443 1.443 0 0 0 295 539z" transform="translate(-284 -538)" style="fill:#3c3f50" data-name="ic_draw_bookmark_off"/>
</svg>
