<svg xmlns="http://www.w3.org/2000/svg" width="22" height="22" viewBox="0 0 22 22">
    <path data-name="패스 54436" d="m2260.707 274 2.4-2.4a.5.5 0 0 0-.708-.708l-2.4 2.4-2.4-2.4a.5.5 0 0 0-.708.708l2.4 2.4-2.4 2.4a.5.5 0 0 0 .708.708l2.4-2.4 2.4 2.4a.5.5 0 0 0 .708-.708z" style="fill:#3c3f50" transform="translate(-2244 -257.875)"/>
    <path data-name="패스 54437" d="M2260.5 260.5a3 3 0 0 0-3 3 2.964 2.964 0 0 0 .155.907l-5.534 3.162a3 3 0 1 0-.233 3.229l2.864 1.636a.494.494 0 0 0 .248.066.5.5 0 0 0 .248-.934l-2.9-1.659a2.964 2.964 0 0 0 .155-.907 3 3 0 0 0-.047-.469l5.659-3.233a3 3 0 1 0 2.388-4.8zm-9.075 9.013a1.876 1.876 0 1 1 .075-.513 1.988 1.988 0 0 1-.075.513zm9.075-4.013a2 2 0 1 1 2-2 1.987 1.987 0 0 1-2 2z" style="fill:#3c3f50" transform="translate(-2244 -257.875)"/>
</svg>
