<svg xmlns="http://www.w3.org/2000/svg" width="22" height="22" viewBox="0 0 22 22">
    <path data-name="패스 5111" d="M420.5 501.5a2.989 2.989 0 0 0-2.592 1.518l-5.533-3.2-.009.014a2.931 2.931 0 0 0 .134-.832 3.066 3.066 0 0 0-.041-.41l5.669-3.274a3.151 3.151 0 1 0-.465-.886l-5.517 3.185a2.994 2.994 0 1 0-.2 3.114l5.611 3.239a3 3 0 1 0 2.943-2.468zm0-10a2 2 0 1 1-2 2 2 2 0 0 1 2-2zm-11 9.5a2 2 0 1 1 2-2 2 2 0 0 1-2 2zm11 5.5a2 2 0 1 1 2-2 2 2 0 0 1-2 2z" transform="translate(-404 -488)" style="fill:#3c3f50"/>
</svg>
