<svg xmlns="http://www.w3.org/2000/svg" width="22" height="22" viewBox="0 0 22 22">
    <path data-name="합치기 696" d="M14.648 18.355a.5.5 0 0 1 0-.707l3.147-3.148H11a.5.5 0 0 1 0-1h6.793l-3.146-3.146a.5.5 0 1 1 .707-.708l4 4a.5.5 0 0 1 .11.545.505.505 0 0 1-.11.163l-4 4a.5.5 0 0 1-.707 0zM2 17a1.976 1.976 0 0 1-2-1.945V2a2 2 0 0 1 2-2h4.088a1.514 1.514 0 0 1 1.06.438l1.928 1.928a.506.506 0 0 0 .354.146H18a1.975 1.975 0 0 1 2 1.945V8.64a.5.5 0 1 1-1 0V4.457a.975.975 0 0 0-1-.945H9.429a1.487 1.487 0 0 1-1.06-.439L6.441 1.147A.5.5 0 0 0 6.088 1H2a1 1 0 0 0-1 1v13.056A.975.975 0 0 0 2 16h6.449a.5.5 0 0 1 0 1z" transform="translate(.998 1.999)" style="fill:#3c3f50"/>
</svg>
