<svg xmlns="http://www.w3.org/2000/svg" width="22" height="22" viewBox="0 0 22 22">
    <path data-name="합치기 454" d="M14242.3-2591.616a4.99 4.99 0 0 1 .089-6.8l2.344-2.476a4.664 4.664 0 0 1 3.328-1.431 4.435 4.435 0 0 1 3.268 1.439 8.017 8.017 0 0 1 .763.963.506.506 0 0 1-.14.694.5.5 0 0 1-.694-.14 6.636 6.636 0 0 0-.662-.837 3.567 3.567 0 0 0-2.562-1.12 3.515 3.515 0 0 0-2.569 1.12l-2.348 2.48a3.985 3.985 0 0 0-.078 5.439 3.7 3.7 0 0 0 2.655 1.188 4.115 4.115 0 0 0 2.576-1.141l1.009-1.006a.5.5 0 0 1 .709 0 .505.505 0 0 1 0 .708l-1.021 1.013a5.144 5.144 0 0 1-3.252 1.428 4.715 4.715 0 0 1-3.415-1.521zm5.643-5.321a.5.5 0 0 1 0-.709.5.5 0 0 1 .708 0 4 4 0 0 0 5.64 0l2.545-2.541a3.97 3.97 0 0 0 1.166-2.82 3.965 3.965 0 0 0-1.166-2.82 3.964 3.964 0 0 0-2.82-1.17 3.966 3.966 0 0 0-2.823 1.17l-1.324 1.278a.5.5 0 0 1-.708-.014.5.5 0 0 1 .014-.705l1.321-1.274a4.947 4.947 0 0 1 3.521-1.453 4.956 4.956 0 0 1 3.525 1.46 4.946 4.946 0 0 1 1.464 3.529 4.959 4.959 0 0 1-1.464 3.528l-2.541 2.541a4.983 4.983 0 0 1-3.528 1.453 4.983 4.983 0 0 1-3.535-1.453z" transform="translate(-14238.998 2610.05)" style="fill:#3c3f50;stroke:transparent;stroke-miterlimit:10"/>
</svg>
