<svg xmlns="http://www.w3.org/2000/svg" width="22" height="22" viewBox="0 0 22 22">
    <path data-name="합치기 508" d="M13427.5-2884a2 2 0 0 1-2-2v-14h-1a.5.5 0 0 1-.5-.5.5.5 0 0 1 .5-.5h4v-1a2 2 0 0 1 2-2h5a2 2 0 0 1 2 2v1h4a.5.5 0 0 1 .5.5.5.5 0 0 1-.5.5h-1v14a2.005 2.005 0 0 1-2 2zm-1-2a1 1 0 0 0 1 1h11a1 1 0 0 0 1-1v-14h-13zm3-16v1h7v-1a1 1 0 0 0-1-1h-5a1 1 0 0 0-1 1zm5 13v-7a.5.5 0 0 1 .5-.5.5.5 0 0 1 .5.5v7a.5.5 0 0 1-.5.5.5.5 0 0 1-.5-.5zm-4 0v-7a.5.5 0 0 1 .5-.5.5.5 0 0 1 .5.5v7a.5.5 0 0 1-.5.5.5.5 0 0 1-.5-.5z" transform="translate(-13422 2905)" style="fill:#3c3f50;stroke:transparent;stroke-miterlimit:10"/>
</svg>
