<svg xmlns="http://www.w3.org/2000/svg" id="ic_sheet_sharing" width="22" height="22" viewBox="0 0 22 22">
    <defs>
        <style>
            .cls-2{fill:rgb(60, 63, 80);stroke:transparent;stroke-miterlimit:10}
        </style>
    </defs>
    <g id="icon" transform="translate(-2083.893 -258.172)">
        <g id="그룹_33557" transform="translate(1898.393 134.051)">
            <path id="합치기_976" d="M-1226.5 13456.954a7.206 7.206 0 0 1 7.167-7.167h.979a.5.5 0 0 1 .5.5.5.5 0 0 1-.5.5h-.979a6.205 6.205 0 0 0-6.167 6.171.5.5 0 0 1-.5.5.5.5 0 0 1-.5-.504zm5-12.834a4 4 0 0 1 4-4 4 4 0 0 1 4 4 4 4 0 0 1-4 4 4 4 0 0 1-4-4zm1 0a3 3 0 0 0 3 3 3 3 0 0 0 3-3 3 3 0 0 0-3-3 3 3 0 0 0-3 3z" class="cls-2" transform="translate(1414 -13314)"/>
            <path id="합치기_975" d="M-1221.214 13447.107v-.116l-2.352-1.359a1.694 1.694 0 0 1-1.236.534 1.7 1.7 0 0 1-1.7-1.7 1.7 1.7 0 0 1 1.7-1.7 1.7 1.7 0 0 1 1.363.684l2.253-1.3a1.7 1.7 0 0 1-.031-.323 1.7 1.7 0 0 1 1.7-1.7 1.7 1.7 0 0 1 1.7 1.7 1.7 1.7 0 0 1-1.7 1.7 1.7 1.7 0 0 1-1.2-.5l-2.387 1.379v.058a1.685 1.685 0 0 1-.021.269l2.276 1.314a1.7 1.7 0 0 1 1.33-.642 1.7 1.7 0 0 1 1.7 1.7 1.7 1.7 0 0 1-1.7 1.7 1.7 1.7 0 0 1-1.695-1.698zm1 0a.7.7 0 0 0 .7.7.7.7 0 0 0 .7-.7.7.7 0 0 0-.7-.7.7.7 0 0 0-.701.7zm-5.286-2.643a.7.7 0 0 0 .7.7.7.7 0 0 0 .7-.7.7.7 0 0 0-.7-.7.7.7 0 0 0-.7.701zm5.286-2.643a.7.7 0 0 0 .7.7.7.7 0 0 0 .7-.7.7.7 0 0 0-.7-.7.7.7 0 0 0-.701.701z" class="cls-2" transform="translate(1423.098 -13304.344)"/>
        </g>
    </g>
</svg>
