<svg xmlns="http://www.w3.org/2000/svg" width="22" height="22" viewBox="0 0 22 22">
    <path data-name="빼기 814" d="M22239 18221h-2a2 2 0 0 1-2-2v-16a2 2 0 0 1 2-2h8.5a.437.437 0 0 1 .189.039.446.446 0 0 1 .162.105l5 5a.558.558 0 0 1 .107.162.6.6 0 0 1 .039.189v4.5h-1v-4h-4.5a.5.5 0 0 1-.5-.5v-4.5h-8a1 1 0 0 0-1 1v16a1 1 0 0 0 1 1h2v1zm7-18.3v3.3h3.291l-3.291-3.295zm-2.5 9.295h-5a.5.5 0 0 1-.5-.5.5.5 0 0 1 .5-.5h5a.5.5 0 0 1 0 1zm4-3h-9a.5.5 0 0 1-.5-.5.5.5 0 0 1 .5-.5h9a.5.5 0 1 1 0 1z" transform="translate(-22232 -18200)" style="fill:#3c3f50;stroke:transparent;stroke-miterlimit:10"/>
    <path data-name="합치기 1350" d="M7.758 6.766a3.377 3.377 0 0 1-3.35-3.383.53.53 0 0 1 .15-.363.5.5 0 0 1 .361-.152.517.517 0 0 1 .518.516 2.345 2.345 0 0 0 2.32 2.35h1.891a2.346 2.346 0 0 0 0-4.691h-.63a.515.515 0 0 1-.512-.52A.517.517 0 0 1 9.018 0h.631a3.383 3.383 0 0 1 0 6.766zm-4.408 0A3.383 3.383 0 0 1 3.35 0h1.892A3.373 3.373 0 0 1 8.59 3.389a.515.515 0 1 1-1.029 0 2.337 2.337 0 0 0-2.319-2.348H3.35a2.346 2.346 0 0 0 0 4.691h.63a.517.517 0 0 1 0 1.033z" transform="translate(8 13.615)" style="fill:#3c3f50;stroke:transparent;stroke-miterlimit:10"/>
</svg>
