<svg xmlns="http://www.w3.org/2000/svg" width="22" height="22" viewBox="0 0 22 22">
    <path fill="rgb(60, 63, 80)" stroke="rgba(0,0,0,0)" stroke-miterlimit="10" d="M13931-4455a10.011 10.011 0 0 1 10-10 10.01 10.01 0 0 1 10 10 10.01 10.01 0 0 1-10 10 10.01 10.01 0 0 1-10-10zm1 0a9.012 9.012 0 0 0 9 9 9.009 9.009 0 0 0 9-9 9.012 9.012 0 0 0-9-9 9.015 9.015 0 0 0-9 9zm8.165 3.564a.934.934 0 0 1-.318-.725 2.858 2.858 0 0 1 .024-.35c.018-.119.042-.256.077-.4l.392-1.428c.035-.137.063-.27.088-.389a1.725 1.725 0 0 0 .035-.336.524.524 0 0 0-.108-.381.619.619 0 0 0-.421-.109 1.1 1.1 0 0 0-.312.049c-.1.031-.2.066-.272.094l.1-.441c.259-.108.5-.2.739-.277a2.114 2.114 0 0 1 .661-.115 1.249 1.249 0 0 1 .872.28.962.962 0 0 1 .308.735c0 .06-.007.168-.024.326a2.13 2.13 0 0 1-.077.431l-.388 1.425c-.032.112-.06.241-.088.388a2.327 2.327 0 0 0-.039.333.47.47 0 0 0 .127.385.645.645 0 0 0 .423.105 1.156 1.156 0 0 0 .322-.053 1.578 1.578 0 0 0 .259-.091l-.1.441c-.315.129-.564.224-.75.291a1.941 1.941 0 0 1-.651.1 1.255 1.255 0 0 1-.88-.287zm.9-5.882a.85.85 0 0 1-.273-.634.856.856 0 0 1 .273-.637.924.924 0 0 1 .661-.263.91.91 0 0 1 .655.263.859.859 0 0 1 .272.637.852.852 0 0 1-.272.634.923.923 0 0 1-.655.259.937.937 0 0 1-.665-.258z" transform="translate(-13930 4466)"/>
</svg>
