<svg xmlns="http://www.w3.org/2000/svg" width="22" height="22" viewBox="0 0 22 22">
    <path fill="#3c3f50" d="M-8390-671.5a2 2 0 0 1-2-2v-3a.5.5 0 0 1 .5-.5.5.5 0 0 1 .5.5v3a1 1 0 0 0 1 1h14a1 1 0 0 0 1-1v-3a.5.5 0 0 1 .5-.5.5.5 0 0 1 .5.5v3a2 2 0 0 1-2 2zm6.563-5.362l-4.244-4.244a.5.5 0 0 1 0-.706.5.5 0 0 1 .708 0l3.391 3.389V-688.5a.5.5 0 0 1 .5-.5.5.5 0 0 1 .5.5v10.074l3.389-3.387a.5.5 0 0 1 .708 0 .5.5 0 0 1 0 .706l-4.244 4.244a.5.5 0 0 1-.352.145.5.5 0 0 1-.356-.145z" transform="translate(8394 691.5)"/>
</svg>
