<svg xmlns="http://www.w3.org/2000/svg" width="14" height="14" viewBox="0 0 14 14">
    <g data-name="그룹 33441">
        <path data-name="패스 54285" d="M683.066 193a2 2 0 1 1 2-2 2 2 0 0 1-2 2zm0-3a1 1 0 1 0 1 1 1 1 0 0 0-1-1z" style="fill:#3c3f50" transform="translate(-676.066 -186.5)"/>
        <path data-name="합치기 973" d="m20958.211 13655.351-2-2a.5.5 0 0 1 0-.7l2-2a.5.5 0 0 1 .709 0 .5.5 0 0 1 0 .7l-1.146 1.147h2.793a.5.5 0 1 1 0 1h-2.793l1.146 1.147a.5.5 0 0 1 0 .7.488.488 0 0 1-.352.147.5.5 0 0 1-.357-.141z" transform="translate(-20949.066 -13643)" style="fill:#fc6d51;stroke:transparent;stroke-miterlimit:10"/>
        <path data-name="패스 54288" d="M678.566 198a.5.5 0 0 1-.5-.5 3.5 3.5 0 0 1 3.5-3.5h1.5a.5.5 0 0 1 0 1h-1.5a2.5 2.5 0 0 0-2.5 2.5.5.5 0 0 1-.5.5z" style="fill:#3c3f50" transform="translate(-676.066 -186.5)"/>
    </g>
</svg>
