<svg xmlns="http://www.w3.org/2000/svg" width="14" height="14" viewBox="0 0 14 14">
    <g data-name="그룹 33440">
        <path data-name="패스 54281" d="M652.251 193a2 2 0 1 1 2-2 2 2 0 0 1-2 2zm0-3a1 1 0 1 0 1 1 1 1 0 0 0-1-1z" style="fill:#3c3f50" transform="translate(-645.25 -186.5)"/>
        <path data-name="패스 54284" d="M647.751 198a.5.5 0 0 1-.5-.5 3.5 3.5 0 0 1 3.5-3.5h1.5a.5.5 0 0 1 0 1h-1.5a2.5 2.5 0 0 0-2.5 2.5.5.5 0 0 1-.5.5z" style="fill:#3c3f50" transform="translate(-645.25 -186.5)"/>
        <path data-name="합치기 972" d="M20927.395 13681.354a.506.506 0 0 1 0-.709l1.15-1.146h-2.793a.5.5 0 1 1 0-1h2.793l-1.15-1.15a.5.5 0 0 1 0-.7.5.5 0 0 1 .709 0l2 2a.5.5 0 0 1 0 .7l-2 2a.482.482 0 0 1-.352.147.5.5 0 0 1-.357-.142z" transform="translate(-20918.25 -13669)" style="fill:#1e92ff;stroke:transparent;stroke-miterlimit:10"/>
    </g>
</svg>
