<svg xmlns="http://www.w3.org/2000/svg" width="14" height="14" viewBox="0 0 14 14">
    <path data-name="합치기 1347" d="M22644 20139a3.006 3.006 0 0 1-3-3h.006a.5.5 0 0 1 1 0v.063a2 2 0 0 0 2 1.939h1a2 2 0 0 0 0-4h-.5a.5.5 0 0 1 0-1h.5a3 3 0 0 1 0 6z" transform="translate(-22635.5 -20129)" style="fill:#3c3f50;stroke:transparent;stroke-miterlimit:10"/>
    <path data-name="합치기 1348" d="M4 6a3 3 0 0 1-3-3 .5.5 0 0 1 1 0v.037A2 2 0 0 0 4 5h1a2 2 0 1 0 0-4h-.5a.5.5 0 0 1 0-1H5a3 3 0 1 1 0 6z" transform="rotate(180 4.752 5)" style="fill:#3c3f50;stroke:transparent;stroke-miterlimit:10"/>
</svg>
